G04 #@! TF.GenerationSoftware,KiCad,Pcbnew,5.0.2+dfsg1-1*
G04 #@! TF.CreationDate,2021-06-16T12:20:31+01:00*
G04 #@! TF.ProjectId,SE PLCC ROM,53452050-4c43-4432-9052-4f4d2e6b6963,rev?*
G04 #@! TF.SameCoordinates,Original*
G04 #@! TF.FileFunction,Copper,L1,Top*
G04 #@! TF.FilePolarity,Positive*
%FSLAX46Y46*%
G04 Gerber Fmt 4.6, Leading zero omitted, Abs format (unit mm)*
G04 Created by KiCad (PCBNEW 5.0.2+dfsg1-1) date Wed 16 Jun 2021 12:20:31 BST*
%MOMM*%
%LPD*%
G01*
G04 APERTURE LIST*
G04 #@! TA.AperFunction,NonConductor*
%ADD10C,0.150000*%
G04 #@! TD*
G04 #@! TA.AperFunction,ComponentPad*
%ADD11R,1.600000X1.600000*%
G04 #@! TD*
G04 #@! TA.AperFunction,ComponentPad*
%ADD12O,1.600000X1.600000*%
G04 #@! TD*
G04 #@! TA.AperFunction,Conductor*
%ADD13C,0.100000*%
G04 #@! TD*
G04 #@! TA.AperFunction,SMDPad,CuDef*
%ADD14C,0.600000*%
G04 #@! TD*
G04 #@! TA.AperFunction,ViaPad*
%ADD15C,0.600000*%
G04 #@! TD*
G04 #@! TA.AperFunction,Conductor*
%ADD16C,0.500000*%
G04 #@! TD*
G04 #@! TA.AperFunction,Conductor*
%ADD17C,0.250000*%
G04 #@! TD*
G04 APERTURE END LIST*
D10*
X132400000Y-65450000D02*
G75*
G02X130400000Y-65450000I-1000000J0D01*
G01*
X140150000Y-65450000D02*
X132450000Y-65450000D01*
X122650000Y-65450000D02*
X130350000Y-65450000D01*
X122650000Y-65450000D02*
X122650000Y-101700000D01*
X140150000Y-101700000D02*
X122650000Y-101700000D01*
X140150000Y-65450000D02*
X140150000Y-101700000D01*
D11*
G04 #@! TO.P,J1,1*
G04 #@! TO.N,/A15*
X123775001Y-67075001D03*
D12*
G04 #@! TO.P,J1,15*
G04 #@! TO.N,/D3*
X139015001Y-100095001D03*
G04 #@! TO.P,J1,2*
G04 #@! TO.N,/A12*
X123775001Y-69615001D03*
G04 #@! TO.P,J1,16*
G04 #@! TO.N,/D4*
X139015001Y-97555001D03*
G04 #@! TO.P,J1,3*
G04 #@! TO.N,/A7*
X123775001Y-72155001D03*
G04 #@! TO.P,J1,17*
G04 #@! TO.N,/D5*
X139015001Y-95015001D03*
G04 #@! TO.P,J1,4*
G04 #@! TO.N,/A6*
X123775001Y-74695001D03*
G04 #@! TO.P,J1,18*
G04 #@! TO.N,/D6*
X139015001Y-92475001D03*
G04 #@! TO.P,J1,5*
G04 #@! TO.N,/A5*
X123775001Y-77235001D03*
G04 #@! TO.P,J1,19*
G04 #@! TO.N,/D7*
X139015001Y-89935001D03*
G04 #@! TO.P,J1,6*
G04 #@! TO.N,/A4*
X123775001Y-79775001D03*
G04 #@! TO.P,J1,20*
G04 #@! TO.N,Net-(J1-Pad20)*
X139015001Y-87395001D03*
G04 #@! TO.P,J1,7*
G04 #@! TO.N,/A3*
X123775001Y-82315001D03*
G04 #@! TO.P,J1,21*
G04 #@! TO.N,/A10*
X139015001Y-84855001D03*
G04 #@! TO.P,J1,8*
G04 #@! TO.N,/A2*
X123775001Y-84855001D03*
G04 #@! TO.P,J1,22*
G04 #@! TO.N,/A16*
X139015001Y-82315001D03*
G04 #@! TO.P,J1,9*
G04 #@! TO.N,/A1*
X123775001Y-87395001D03*
G04 #@! TO.P,J1,23*
G04 #@! TO.N,/A11*
X139015001Y-79775001D03*
G04 #@! TO.P,J1,10*
G04 #@! TO.N,/A0*
X123775001Y-89935001D03*
G04 #@! TO.P,J1,24*
G04 #@! TO.N,/A9*
X139015001Y-77235001D03*
G04 #@! TO.P,J1,11*
G04 #@! TO.N,/D0*
X123775001Y-92475001D03*
G04 #@! TO.P,J1,25*
G04 #@! TO.N,/A8*
X139015001Y-74695001D03*
G04 #@! TO.P,J1,12*
G04 #@! TO.N,/D1*
X123775001Y-95015001D03*
G04 #@! TO.P,J1,26*
G04 #@! TO.N,/A13*
X139015001Y-72155001D03*
G04 #@! TO.P,J1,13*
G04 #@! TO.N,/D2*
X123775001Y-97555001D03*
G04 #@! TO.P,J1,27*
G04 #@! TO.N,/A14*
X139015001Y-69615001D03*
G04 #@! TO.P,J1,14*
G04 #@! TO.N,GND*
X123775001Y-100095001D03*
G04 #@! TO.P,J1,28*
G04 #@! TO.N,+5V*
X139015001Y-67075001D03*
G04 #@! TD*
D13*
G04 #@! TO.N,Net-(U1-Pad1)*
G04 #@! TO.C,U1*
G36*
X131564703Y-75625722D02*
X131579264Y-75627882D01*
X131593543Y-75631459D01*
X131607403Y-75636418D01*
X131620710Y-75642712D01*
X131633336Y-75650280D01*
X131645159Y-75659048D01*
X131656066Y-75668934D01*
X131665952Y-75679841D01*
X131674720Y-75691664D01*
X131682288Y-75704290D01*
X131688582Y-75717597D01*
X131693541Y-75731457D01*
X131697118Y-75745736D01*
X131699278Y-75760297D01*
X131700000Y-75775000D01*
X131700000Y-76950000D01*
X131699278Y-76964703D01*
X131697118Y-76979264D01*
X131693541Y-76993543D01*
X131688582Y-77007403D01*
X131682288Y-77020710D01*
X131674720Y-77033336D01*
X131665952Y-77045159D01*
X131656066Y-77056066D01*
X131645159Y-77065952D01*
X131633336Y-77074720D01*
X131620710Y-77082288D01*
X131607403Y-77088582D01*
X131593543Y-77093541D01*
X131579264Y-77097118D01*
X131564703Y-77099278D01*
X131550000Y-77100000D01*
X131250000Y-77100000D01*
X131235297Y-77099278D01*
X131220736Y-77097118D01*
X131206457Y-77093541D01*
X131192597Y-77088582D01*
X131179290Y-77082288D01*
X131166664Y-77074720D01*
X131154841Y-77065952D01*
X131143934Y-77056066D01*
X131134048Y-77045159D01*
X131125280Y-77033336D01*
X131117712Y-77020710D01*
X131111418Y-77007403D01*
X131106459Y-76993543D01*
X131102882Y-76979264D01*
X131100722Y-76964703D01*
X131100000Y-76950000D01*
X131100000Y-75775000D01*
X131100722Y-75760297D01*
X131102882Y-75745736D01*
X131106459Y-75731457D01*
X131111418Y-75717597D01*
X131117712Y-75704290D01*
X131125280Y-75691664D01*
X131134048Y-75679841D01*
X131143934Y-75668934D01*
X131154841Y-75659048D01*
X131166664Y-75650280D01*
X131179290Y-75642712D01*
X131192597Y-75636418D01*
X131206457Y-75631459D01*
X131220736Y-75627882D01*
X131235297Y-75625722D01*
X131250000Y-75625000D01*
X131550000Y-75625000D01*
X131564703Y-75625722D01*
X131564703Y-75625722D01*
G37*
D14*
G04 #@! TD*
G04 #@! TO.P,U1,1*
G04 #@! TO.N,Net-(U1-Pad1)*
X131400000Y-76362500D03*
D13*
G04 #@! TO.N,/A16*
G04 #@! TO.C,U1*
G36*
X130294703Y-75625722D02*
X130309264Y-75627882D01*
X130323543Y-75631459D01*
X130337403Y-75636418D01*
X130350710Y-75642712D01*
X130363336Y-75650280D01*
X130375159Y-75659048D01*
X130386066Y-75668934D01*
X130395952Y-75679841D01*
X130404720Y-75691664D01*
X130412288Y-75704290D01*
X130418582Y-75717597D01*
X130423541Y-75731457D01*
X130427118Y-75745736D01*
X130429278Y-75760297D01*
X130430000Y-75775000D01*
X130430000Y-76950000D01*
X130429278Y-76964703D01*
X130427118Y-76979264D01*
X130423541Y-76993543D01*
X130418582Y-77007403D01*
X130412288Y-77020710D01*
X130404720Y-77033336D01*
X130395952Y-77045159D01*
X130386066Y-77056066D01*
X130375159Y-77065952D01*
X130363336Y-77074720D01*
X130350710Y-77082288D01*
X130337403Y-77088582D01*
X130323543Y-77093541D01*
X130309264Y-77097118D01*
X130294703Y-77099278D01*
X130280000Y-77100000D01*
X129980000Y-77100000D01*
X129965297Y-77099278D01*
X129950736Y-77097118D01*
X129936457Y-77093541D01*
X129922597Y-77088582D01*
X129909290Y-77082288D01*
X129896664Y-77074720D01*
X129884841Y-77065952D01*
X129873934Y-77056066D01*
X129864048Y-77045159D01*
X129855280Y-77033336D01*
X129847712Y-77020710D01*
X129841418Y-77007403D01*
X129836459Y-76993543D01*
X129832882Y-76979264D01*
X129830722Y-76964703D01*
X129830000Y-76950000D01*
X129830000Y-75775000D01*
X129830722Y-75760297D01*
X129832882Y-75745736D01*
X129836459Y-75731457D01*
X129841418Y-75717597D01*
X129847712Y-75704290D01*
X129855280Y-75691664D01*
X129864048Y-75679841D01*
X129873934Y-75668934D01*
X129884841Y-75659048D01*
X129896664Y-75650280D01*
X129909290Y-75642712D01*
X129922597Y-75636418D01*
X129936457Y-75631459D01*
X129950736Y-75627882D01*
X129965297Y-75625722D01*
X129980000Y-75625000D01*
X130280000Y-75625000D01*
X130294703Y-75625722D01*
X130294703Y-75625722D01*
G37*
D14*
G04 #@! TD*
G04 #@! TO.P,U1,2*
G04 #@! TO.N,/A16*
X130130000Y-76362500D03*
D13*
G04 #@! TO.N,/A15*
G04 #@! TO.C,U1*
G36*
X129024703Y-75625722D02*
X129039264Y-75627882D01*
X129053543Y-75631459D01*
X129067403Y-75636418D01*
X129080710Y-75642712D01*
X129093336Y-75650280D01*
X129105159Y-75659048D01*
X129116066Y-75668934D01*
X129125952Y-75679841D01*
X129134720Y-75691664D01*
X129142288Y-75704290D01*
X129148582Y-75717597D01*
X129153541Y-75731457D01*
X129157118Y-75745736D01*
X129159278Y-75760297D01*
X129160000Y-75775000D01*
X129160000Y-76950000D01*
X129159278Y-76964703D01*
X129157118Y-76979264D01*
X129153541Y-76993543D01*
X129148582Y-77007403D01*
X129142288Y-77020710D01*
X129134720Y-77033336D01*
X129125952Y-77045159D01*
X129116066Y-77056066D01*
X129105159Y-77065952D01*
X129093336Y-77074720D01*
X129080710Y-77082288D01*
X129067403Y-77088582D01*
X129053543Y-77093541D01*
X129039264Y-77097118D01*
X129024703Y-77099278D01*
X129010000Y-77100000D01*
X128710000Y-77100000D01*
X128695297Y-77099278D01*
X128680736Y-77097118D01*
X128666457Y-77093541D01*
X128652597Y-77088582D01*
X128639290Y-77082288D01*
X128626664Y-77074720D01*
X128614841Y-77065952D01*
X128603934Y-77056066D01*
X128594048Y-77045159D01*
X128585280Y-77033336D01*
X128577712Y-77020710D01*
X128571418Y-77007403D01*
X128566459Y-76993543D01*
X128562882Y-76979264D01*
X128560722Y-76964703D01*
X128560000Y-76950000D01*
X128560000Y-75775000D01*
X128560722Y-75760297D01*
X128562882Y-75745736D01*
X128566459Y-75731457D01*
X128571418Y-75717597D01*
X128577712Y-75704290D01*
X128585280Y-75691664D01*
X128594048Y-75679841D01*
X128603934Y-75668934D01*
X128614841Y-75659048D01*
X128626664Y-75650280D01*
X128639290Y-75642712D01*
X128652597Y-75636418D01*
X128666457Y-75631459D01*
X128680736Y-75627882D01*
X128695297Y-75625722D01*
X128710000Y-75625000D01*
X129010000Y-75625000D01*
X129024703Y-75625722D01*
X129024703Y-75625722D01*
G37*
D14*
G04 #@! TD*
G04 #@! TO.P,U1,3*
G04 #@! TO.N,/A15*
X128860000Y-76362500D03*
D13*
G04 #@! TO.N,/A12*
G04 #@! TO.C,U1*
G36*
X127754703Y-75625722D02*
X127769264Y-75627882D01*
X127783543Y-75631459D01*
X127797403Y-75636418D01*
X127810710Y-75642712D01*
X127823336Y-75650280D01*
X127835159Y-75659048D01*
X127846066Y-75668934D01*
X127855952Y-75679841D01*
X127864720Y-75691664D01*
X127872288Y-75704290D01*
X127878582Y-75717597D01*
X127883541Y-75731457D01*
X127887118Y-75745736D01*
X127889278Y-75760297D01*
X127890000Y-75775000D01*
X127890000Y-76950000D01*
X127889278Y-76964703D01*
X127887118Y-76979264D01*
X127883541Y-76993543D01*
X127878582Y-77007403D01*
X127872288Y-77020710D01*
X127864720Y-77033336D01*
X127855952Y-77045159D01*
X127846066Y-77056066D01*
X127835159Y-77065952D01*
X127823336Y-77074720D01*
X127810710Y-77082288D01*
X127797403Y-77088582D01*
X127783543Y-77093541D01*
X127769264Y-77097118D01*
X127754703Y-77099278D01*
X127740000Y-77100000D01*
X127440000Y-77100000D01*
X127425297Y-77099278D01*
X127410736Y-77097118D01*
X127396457Y-77093541D01*
X127382597Y-77088582D01*
X127369290Y-77082288D01*
X127356664Y-77074720D01*
X127344841Y-77065952D01*
X127333934Y-77056066D01*
X127324048Y-77045159D01*
X127315280Y-77033336D01*
X127307712Y-77020710D01*
X127301418Y-77007403D01*
X127296459Y-76993543D01*
X127292882Y-76979264D01*
X127290722Y-76964703D01*
X127290000Y-76950000D01*
X127290000Y-75775000D01*
X127290722Y-75760297D01*
X127292882Y-75745736D01*
X127296459Y-75731457D01*
X127301418Y-75717597D01*
X127307712Y-75704290D01*
X127315280Y-75691664D01*
X127324048Y-75679841D01*
X127333934Y-75668934D01*
X127344841Y-75659048D01*
X127356664Y-75650280D01*
X127369290Y-75642712D01*
X127382597Y-75636418D01*
X127396457Y-75631459D01*
X127410736Y-75627882D01*
X127425297Y-75625722D01*
X127440000Y-75625000D01*
X127740000Y-75625000D01*
X127754703Y-75625722D01*
X127754703Y-75625722D01*
G37*
D14*
G04 #@! TD*
G04 #@! TO.P,U1,4*
G04 #@! TO.N,/A12*
X127590000Y-76362500D03*
D13*
G04 #@! TO.N,/A7*
G04 #@! TO.C,U1*
G36*
X126439703Y-77820722D02*
X126454264Y-77822882D01*
X126468543Y-77826459D01*
X126482403Y-77831418D01*
X126495710Y-77837712D01*
X126508336Y-77845280D01*
X126520159Y-77854048D01*
X126531066Y-77863934D01*
X126540952Y-77874841D01*
X126549720Y-77886664D01*
X126557288Y-77899290D01*
X126563582Y-77912597D01*
X126568541Y-77926457D01*
X126572118Y-77940736D01*
X126574278Y-77955297D01*
X126575000Y-77970000D01*
X126575000Y-78270000D01*
X126574278Y-78284703D01*
X126572118Y-78299264D01*
X126568541Y-78313543D01*
X126563582Y-78327403D01*
X126557288Y-78340710D01*
X126549720Y-78353336D01*
X126540952Y-78365159D01*
X126531066Y-78376066D01*
X126520159Y-78385952D01*
X126508336Y-78394720D01*
X126495710Y-78402288D01*
X126482403Y-78408582D01*
X126468543Y-78413541D01*
X126454264Y-78417118D01*
X126439703Y-78419278D01*
X126425000Y-78420000D01*
X125250000Y-78420000D01*
X125235297Y-78419278D01*
X125220736Y-78417118D01*
X125206457Y-78413541D01*
X125192597Y-78408582D01*
X125179290Y-78402288D01*
X125166664Y-78394720D01*
X125154841Y-78385952D01*
X125143934Y-78376066D01*
X125134048Y-78365159D01*
X125125280Y-78353336D01*
X125117712Y-78340710D01*
X125111418Y-78327403D01*
X125106459Y-78313543D01*
X125102882Y-78299264D01*
X125100722Y-78284703D01*
X125100000Y-78270000D01*
X125100000Y-77970000D01*
X125100722Y-77955297D01*
X125102882Y-77940736D01*
X125106459Y-77926457D01*
X125111418Y-77912597D01*
X125117712Y-77899290D01*
X125125280Y-77886664D01*
X125134048Y-77874841D01*
X125143934Y-77863934D01*
X125154841Y-77854048D01*
X125166664Y-77845280D01*
X125179290Y-77837712D01*
X125192597Y-77831418D01*
X125206457Y-77826459D01*
X125220736Y-77822882D01*
X125235297Y-77820722D01*
X125250000Y-77820000D01*
X126425000Y-77820000D01*
X126439703Y-77820722D01*
X126439703Y-77820722D01*
G37*
D14*
G04 #@! TD*
G04 #@! TO.P,U1,5*
G04 #@! TO.N,/A7*
X125837500Y-78120000D03*
D13*
G04 #@! TO.N,/A6*
G04 #@! TO.C,U1*
G36*
X126439703Y-79090722D02*
X126454264Y-79092882D01*
X126468543Y-79096459D01*
X126482403Y-79101418D01*
X126495710Y-79107712D01*
X126508336Y-79115280D01*
X126520159Y-79124048D01*
X126531066Y-79133934D01*
X126540952Y-79144841D01*
X126549720Y-79156664D01*
X126557288Y-79169290D01*
X126563582Y-79182597D01*
X126568541Y-79196457D01*
X126572118Y-79210736D01*
X126574278Y-79225297D01*
X126575000Y-79240000D01*
X126575000Y-79540000D01*
X126574278Y-79554703D01*
X126572118Y-79569264D01*
X126568541Y-79583543D01*
X126563582Y-79597403D01*
X126557288Y-79610710D01*
X126549720Y-79623336D01*
X126540952Y-79635159D01*
X126531066Y-79646066D01*
X126520159Y-79655952D01*
X126508336Y-79664720D01*
X126495710Y-79672288D01*
X126482403Y-79678582D01*
X126468543Y-79683541D01*
X126454264Y-79687118D01*
X126439703Y-79689278D01*
X126425000Y-79690000D01*
X125250000Y-79690000D01*
X125235297Y-79689278D01*
X125220736Y-79687118D01*
X125206457Y-79683541D01*
X125192597Y-79678582D01*
X125179290Y-79672288D01*
X125166664Y-79664720D01*
X125154841Y-79655952D01*
X125143934Y-79646066D01*
X125134048Y-79635159D01*
X125125280Y-79623336D01*
X125117712Y-79610710D01*
X125111418Y-79597403D01*
X125106459Y-79583543D01*
X125102882Y-79569264D01*
X125100722Y-79554703D01*
X125100000Y-79540000D01*
X125100000Y-79240000D01*
X125100722Y-79225297D01*
X125102882Y-79210736D01*
X125106459Y-79196457D01*
X125111418Y-79182597D01*
X125117712Y-79169290D01*
X125125280Y-79156664D01*
X125134048Y-79144841D01*
X125143934Y-79133934D01*
X125154841Y-79124048D01*
X125166664Y-79115280D01*
X125179290Y-79107712D01*
X125192597Y-79101418D01*
X125206457Y-79096459D01*
X125220736Y-79092882D01*
X125235297Y-79090722D01*
X125250000Y-79090000D01*
X126425000Y-79090000D01*
X126439703Y-79090722D01*
X126439703Y-79090722D01*
G37*
D14*
G04 #@! TD*
G04 #@! TO.P,U1,6*
G04 #@! TO.N,/A6*
X125837500Y-79390000D03*
D13*
G04 #@! TO.N,/A5*
G04 #@! TO.C,U1*
G36*
X126439703Y-80360722D02*
X126454264Y-80362882D01*
X126468543Y-80366459D01*
X126482403Y-80371418D01*
X126495710Y-80377712D01*
X126508336Y-80385280D01*
X126520159Y-80394048D01*
X126531066Y-80403934D01*
X126540952Y-80414841D01*
X126549720Y-80426664D01*
X126557288Y-80439290D01*
X126563582Y-80452597D01*
X126568541Y-80466457D01*
X126572118Y-80480736D01*
X126574278Y-80495297D01*
X126575000Y-80510000D01*
X126575000Y-80810000D01*
X126574278Y-80824703D01*
X126572118Y-80839264D01*
X126568541Y-80853543D01*
X126563582Y-80867403D01*
X126557288Y-80880710D01*
X126549720Y-80893336D01*
X126540952Y-80905159D01*
X126531066Y-80916066D01*
X126520159Y-80925952D01*
X126508336Y-80934720D01*
X126495710Y-80942288D01*
X126482403Y-80948582D01*
X126468543Y-80953541D01*
X126454264Y-80957118D01*
X126439703Y-80959278D01*
X126425000Y-80960000D01*
X125250000Y-80960000D01*
X125235297Y-80959278D01*
X125220736Y-80957118D01*
X125206457Y-80953541D01*
X125192597Y-80948582D01*
X125179290Y-80942288D01*
X125166664Y-80934720D01*
X125154841Y-80925952D01*
X125143934Y-80916066D01*
X125134048Y-80905159D01*
X125125280Y-80893336D01*
X125117712Y-80880710D01*
X125111418Y-80867403D01*
X125106459Y-80853543D01*
X125102882Y-80839264D01*
X125100722Y-80824703D01*
X125100000Y-80810000D01*
X125100000Y-80510000D01*
X125100722Y-80495297D01*
X125102882Y-80480736D01*
X125106459Y-80466457D01*
X125111418Y-80452597D01*
X125117712Y-80439290D01*
X125125280Y-80426664D01*
X125134048Y-80414841D01*
X125143934Y-80403934D01*
X125154841Y-80394048D01*
X125166664Y-80385280D01*
X125179290Y-80377712D01*
X125192597Y-80371418D01*
X125206457Y-80366459D01*
X125220736Y-80362882D01*
X125235297Y-80360722D01*
X125250000Y-80360000D01*
X126425000Y-80360000D01*
X126439703Y-80360722D01*
X126439703Y-80360722D01*
G37*
D14*
G04 #@! TD*
G04 #@! TO.P,U1,7*
G04 #@! TO.N,/A5*
X125837500Y-80660000D03*
D13*
G04 #@! TO.N,/A4*
G04 #@! TO.C,U1*
G36*
X126439703Y-81630722D02*
X126454264Y-81632882D01*
X126468543Y-81636459D01*
X126482403Y-81641418D01*
X126495710Y-81647712D01*
X126508336Y-81655280D01*
X126520159Y-81664048D01*
X126531066Y-81673934D01*
X126540952Y-81684841D01*
X126549720Y-81696664D01*
X126557288Y-81709290D01*
X126563582Y-81722597D01*
X126568541Y-81736457D01*
X126572118Y-81750736D01*
X126574278Y-81765297D01*
X126575000Y-81780000D01*
X126575000Y-82080000D01*
X126574278Y-82094703D01*
X126572118Y-82109264D01*
X126568541Y-82123543D01*
X126563582Y-82137403D01*
X126557288Y-82150710D01*
X126549720Y-82163336D01*
X126540952Y-82175159D01*
X126531066Y-82186066D01*
X126520159Y-82195952D01*
X126508336Y-82204720D01*
X126495710Y-82212288D01*
X126482403Y-82218582D01*
X126468543Y-82223541D01*
X126454264Y-82227118D01*
X126439703Y-82229278D01*
X126425000Y-82230000D01*
X125250000Y-82230000D01*
X125235297Y-82229278D01*
X125220736Y-82227118D01*
X125206457Y-82223541D01*
X125192597Y-82218582D01*
X125179290Y-82212288D01*
X125166664Y-82204720D01*
X125154841Y-82195952D01*
X125143934Y-82186066D01*
X125134048Y-82175159D01*
X125125280Y-82163336D01*
X125117712Y-82150710D01*
X125111418Y-82137403D01*
X125106459Y-82123543D01*
X125102882Y-82109264D01*
X125100722Y-82094703D01*
X125100000Y-82080000D01*
X125100000Y-81780000D01*
X125100722Y-81765297D01*
X125102882Y-81750736D01*
X125106459Y-81736457D01*
X125111418Y-81722597D01*
X125117712Y-81709290D01*
X125125280Y-81696664D01*
X125134048Y-81684841D01*
X125143934Y-81673934D01*
X125154841Y-81664048D01*
X125166664Y-81655280D01*
X125179290Y-81647712D01*
X125192597Y-81641418D01*
X125206457Y-81636459D01*
X125220736Y-81632882D01*
X125235297Y-81630722D01*
X125250000Y-81630000D01*
X126425000Y-81630000D01*
X126439703Y-81630722D01*
X126439703Y-81630722D01*
G37*
D14*
G04 #@! TD*
G04 #@! TO.P,U1,8*
G04 #@! TO.N,/A4*
X125837500Y-81930000D03*
D13*
G04 #@! TO.N,/A3*
G04 #@! TO.C,U1*
G36*
X126439703Y-82900722D02*
X126454264Y-82902882D01*
X126468543Y-82906459D01*
X126482403Y-82911418D01*
X126495710Y-82917712D01*
X126508336Y-82925280D01*
X126520159Y-82934048D01*
X126531066Y-82943934D01*
X126540952Y-82954841D01*
X126549720Y-82966664D01*
X126557288Y-82979290D01*
X126563582Y-82992597D01*
X126568541Y-83006457D01*
X126572118Y-83020736D01*
X126574278Y-83035297D01*
X126575000Y-83050000D01*
X126575000Y-83350000D01*
X126574278Y-83364703D01*
X126572118Y-83379264D01*
X126568541Y-83393543D01*
X126563582Y-83407403D01*
X126557288Y-83420710D01*
X126549720Y-83433336D01*
X126540952Y-83445159D01*
X126531066Y-83456066D01*
X126520159Y-83465952D01*
X126508336Y-83474720D01*
X126495710Y-83482288D01*
X126482403Y-83488582D01*
X126468543Y-83493541D01*
X126454264Y-83497118D01*
X126439703Y-83499278D01*
X126425000Y-83500000D01*
X125250000Y-83500000D01*
X125235297Y-83499278D01*
X125220736Y-83497118D01*
X125206457Y-83493541D01*
X125192597Y-83488582D01*
X125179290Y-83482288D01*
X125166664Y-83474720D01*
X125154841Y-83465952D01*
X125143934Y-83456066D01*
X125134048Y-83445159D01*
X125125280Y-83433336D01*
X125117712Y-83420710D01*
X125111418Y-83407403D01*
X125106459Y-83393543D01*
X125102882Y-83379264D01*
X125100722Y-83364703D01*
X125100000Y-83350000D01*
X125100000Y-83050000D01*
X125100722Y-83035297D01*
X125102882Y-83020736D01*
X125106459Y-83006457D01*
X125111418Y-82992597D01*
X125117712Y-82979290D01*
X125125280Y-82966664D01*
X125134048Y-82954841D01*
X125143934Y-82943934D01*
X125154841Y-82934048D01*
X125166664Y-82925280D01*
X125179290Y-82917712D01*
X125192597Y-82911418D01*
X125206457Y-82906459D01*
X125220736Y-82902882D01*
X125235297Y-82900722D01*
X125250000Y-82900000D01*
X126425000Y-82900000D01*
X126439703Y-82900722D01*
X126439703Y-82900722D01*
G37*
D14*
G04 #@! TD*
G04 #@! TO.P,U1,9*
G04 #@! TO.N,/A3*
X125837500Y-83200000D03*
D13*
G04 #@! TO.N,/A2*
G04 #@! TO.C,U1*
G36*
X126439703Y-84170722D02*
X126454264Y-84172882D01*
X126468543Y-84176459D01*
X126482403Y-84181418D01*
X126495710Y-84187712D01*
X126508336Y-84195280D01*
X126520159Y-84204048D01*
X126531066Y-84213934D01*
X126540952Y-84224841D01*
X126549720Y-84236664D01*
X126557288Y-84249290D01*
X126563582Y-84262597D01*
X126568541Y-84276457D01*
X126572118Y-84290736D01*
X126574278Y-84305297D01*
X126575000Y-84320000D01*
X126575000Y-84620000D01*
X126574278Y-84634703D01*
X126572118Y-84649264D01*
X126568541Y-84663543D01*
X126563582Y-84677403D01*
X126557288Y-84690710D01*
X126549720Y-84703336D01*
X126540952Y-84715159D01*
X126531066Y-84726066D01*
X126520159Y-84735952D01*
X126508336Y-84744720D01*
X126495710Y-84752288D01*
X126482403Y-84758582D01*
X126468543Y-84763541D01*
X126454264Y-84767118D01*
X126439703Y-84769278D01*
X126425000Y-84770000D01*
X125250000Y-84770000D01*
X125235297Y-84769278D01*
X125220736Y-84767118D01*
X125206457Y-84763541D01*
X125192597Y-84758582D01*
X125179290Y-84752288D01*
X125166664Y-84744720D01*
X125154841Y-84735952D01*
X125143934Y-84726066D01*
X125134048Y-84715159D01*
X125125280Y-84703336D01*
X125117712Y-84690710D01*
X125111418Y-84677403D01*
X125106459Y-84663543D01*
X125102882Y-84649264D01*
X125100722Y-84634703D01*
X125100000Y-84620000D01*
X125100000Y-84320000D01*
X125100722Y-84305297D01*
X125102882Y-84290736D01*
X125106459Y-84276457D01*
X125111418Y-84262597D01*
X125117712Y-84249290D01*
X125125280Y-84236664D01*
X125134048Y-84224841D01*
X125143934Y-84213934D01*
X125154841Y-84204048D01*
X125166664Y-84195280D01*
X125179290Y-84187712D01*
X125192597Y-84181418D01*
X125206457Y-84176459D01*
X125220736Y-84172882D01*
X125235297Y-84170722D01*
X125250000Y-84170000D01*
X126425000Y-84170000D01*
X126439703Y-84170722D01*
X126439703Y-84170722D01*
G37*
D14*
G04 #@! TD*
G04 #@! TO.P,U1,10*
G04 #@! TO.N,/A2*
X125837500Y-84470000D03*
D13*
G04 #@! TO.N,/A1*
G04 #@! TO.C,U1*
G36*
X126439703Y-85440722D02*
X126454264Y-85442882D01*
X126468543Y-85446459D01*
X126482403Y-85451418D01*
X126495710Y-85457712D01*
X126508336Y-85465280D01*
X126520159Y-85474048D01*
X126531066Y-85483934D01*
X126540952Y-85494841D01*
X126549720Y-85506664D01*
X126557288Y-85519290D01*
X126563582Y-85532597D01*
X126568541Y-85546457D01*
X126572118Y-85560736D01*
X126574278Y-85575297D01*
X126575000Y-85590000D01*
X126575000Y-85890000D01*
X126574278Y-85904703D01*
X126572118Y-85919264D01*
X126568541Y-85933543D01*
X126563582Y-85947403D01*
X126557288Y-85960710D01*
X126549720Y-85973336D01*
X126540952Y-85985159D01*
X126531066Y-85996066D01*
X126520159Y-86005952D01*
X126508336Y-86014720D01*
X126495710Y-86022288D01*
X126482403Y-86028582D01*
X126468543Y-86033541D01*
X126454264Y-86037118D01*
X126439703Y-86039278D01*
X126425000Y-86040000D01*
X125250000Y-86040000D01*
X125235297Y-86039278D01*
X125220736Y-86037118D01*
X125206457Y-86033541D01*
X125192597Y-86028582D01*
X125179290Y-86022288D01*
X125166664Y-86014720D01*
X125154841Y-86005952D01*
X125143934Y-85996066D01*
X125134048Y-85985159D01*
X125125280Y-85973336D01*
X125117712Y-85960710D01*
X125111418Y-85947403D01*
X125106459Y-85933543D01*
X125102882Y-85919264D01*
X125100722Y-85904703D01*
X125100000Y-85890000D01*
X125100000Y-85590000D01*
X125100722Y-85575297D01*
X125102882Y-85560736D01*
X125106459Y-85546457D01*
X125111418Y-85532597D01*
X125117712Y-85519290D01*
X125125280Y-85506664D01*
X125134048Y-85494841D01*
X125143934Y-85483934D01*
X125154841Y-85474048D01*
X125166664Y-85465280D01*
X125179290Y-85457712D01*
X125192597Y-85451418D01*
X125206457Y-85446459D01*
X125220736Y-85442882D01*
X125235297Y-85440722D01*
X125250000Y-85440000D01*
X126425000Y-85440000D01*
X126439703Y-85440722D01*
X126439703Y-85440722D01*
G37*
D14*
G04 #@! TD*
G04 #@! TO.P,U1,11*
G04 #@! TO.N,/A1*
X125837500Y-85740000D03*
D13*
G04 #@! TO.N,/A0*
G04 #@! TO.C,U1*
G36*
X126439703Y-86710722D02*
X126454264Y-86712882D01*
X126468543Y-86716459D01*
X126482403Y-86721418D01*
X126495710Y-86727712D01*
X126508336Y-86735280D01*
X126520159Y-86744048D01*
X126531066Y-86753934D01*
X126540952Y-86764841D01*
X126549720Y-86776664D01*
X126557288Y-86789290D01*
X126563582Y-86802597D01*
X126568541Y-86816457D01*
X126572118Y-86830736D01*
X126574278Y-86845297D01*
X126575000Y-86860000D01*
X126575000Y-87160000D01*
X126574278Y-87174703D01*
X126572118Y-87189264D01*
X126568541Y-87203543D01*
X126563582Y-87217403D01*
X126557288Y-87230710D01*
X126549720Y-87243336D01*
X126540952Y-87255159D01*
X126531066Y-87266066D01*
X126520159Y-87275952D01*
X126508336Y-87284720D01*
X126495710Y-87292288D01*
X126482403Y-87298582D01*
X126468543Y-87303541D01*
X126454264Y-87307118D01*
X126439703Y-87309278D01*
X126425000Y-87310000D01*
X125250000Y-87310000D01*
X125235297Y-87309278D01*
X125220736Y-87307118D01*
X125206457Y-87303541D01*
X125192597Y-87298582D01*
X125179290Y-87292288D01*
X125166664Y-87284720D01*
X125154841Y-87275952D01*
X125143934Y-87266066D01*
X125134048Y-87255159D01*
X125125280Y-87243336D01*
X125117712Y-87230710D01*
X125111418Y-87217403D01*
X125106459Y-87203543D01*
X125102882Y-87189264D01*
X125100722Y-87174703D01*
X125100000Y-87160000D01*
X125100000Y-86860000D01*
X125100722Y-86845297D01*
X125102882Y-86830736D01*
X125106459Y-86816457D01*
X125111418Y-86802597D01*
X125117712Y-86789290D01*
X125125280Y-86776664D01*
X125134048Y-86764841D01*
X125143934Y-86753934D01*
X125154841Y-86744048D01*
X125166664Y-86735280D01*
X125179290Y-86727712D01*
X125192597Y-86721418D01*
X125206457Y-86716459D01*
X125220736Y-86712882D01*
X125235297Y-86710722D01*
X125250000Y-86710000D01*
X126425000Y-86710000D01*
X126439703Y-86710722D01*
X126439703Y-86710722D01*
G37*
D14*
G04 #@! TD*
G04 #@! TO.P,U1,12*
G04 #@! TO.N,/A0*
X125837500Y-87010000D03*
D13*
G04 #@! TO.N,/D0*
G04 #@! TO.C,U1*
G36*
X126439703Y-87980722D02*
X126454264Y-87982882D01*
X126468543Y-87986459D01*
X126482403Y-87991418D01*
X126495710Y-87997712D01*
X126508336Y-88005280D01*
X126520159Y-88014048D01*
X126531066Y-88023934D01*
X126540952Y-88034841D01*
X126549720Y-88046664D01*
X126557288Y-88059290D01*
X126563582Y-88072597D01*
X126568541Y-88086457D01*
X126572118Y-88100736D01*
X126574278Y-88115297D01*
X126575000Y-88130000D01*
X126575000Y-88430000D01*
X126574278Y-88444703D01*
X126572118Y-88459264D01*
X126568541Y-88473543D01*
X126563582Y-88487403D01*
X126557288Y-88500710D01*
X126549720Y-88513336D01*
X126540952Y-88525159D01*
X126531066Y-88536066D01*
X126520159Y-88545952D01*
X126508336Y-88554720D01*
X126495710Y-88562288D01*
X126482403Y-88568582D01*
X126468543Y-88573541D01*
X126454264Y-88577118D01*
X126439703Y-88579278D01*
X126425000Y-88580000D01*
X125250000Y-88580000D01*
X125235297Y-88579278D01*
X125220736Y-88577118D01*
X125206457Y-88573541D01*
X125192597Y-88568582D01*
X125179290Y-88562288D01*
X125166664Y-88554720D01*
X125154841Y-88545952D01*
X125143934Y-88536066D01*
X125134048Y-88525159D01*
X125125280Y-88513336D01*
X125117712Y-88500710D01*
X125111418Y-88487403D01*
X125106459Y-88473543D01*
X125102882Y-88459264D01*
X125100722Y-88444703D01*
X125100000Y-88430000D01*
X125100000Y-88130000D01*
X125100722Y-88115297D01*
X125102882Y-88100736D01*
X125106459Y-88086457D01*
X125111418Y-88072597D01*
X125117712Y-88059290D01*
X125125280Y-88046664D01*
X125134048Y-88034841D01*
X125143934Y-88023934D01*
X125154841Y-88014048D01*
X125166664Y-88005280D01*
X125179290Y-87997712D01*
X125192597Y-87991418D01*
X125206457Y-87986459D01*
X125220736Y-87982882D01*
X125235297Y-87980722D01*
X125250000Y-87980000D01*
X126425000Y-87980000D01*
X126439703Y-87980722D01*
X126439703Y-87980722D01*
G37*
D14*
G04 #@! TD*
G04 #@! TO.P,U1,13*
G04 #@! TO.N,/D0*
X125837500Y-88280000D03*
D13*
G04 #@! TO.N,/D1*
G04 #@! TO.C,U1*
G36*
X127754703Y-89300722D02*
X127769264Y-89302882D01*
X127783543Y-89306459D01*
X127797403Y-89311418D01*
X127810710Y-89317712D01*
X127823336Y-89325280D01*
X127835159Y-89334048D01*
X127846066Y-89343934D01*
X127855952Y-89354841D01*
X127864720Y-89366664D01*
X127872288Y-89379290D01*
X127878582Y-89392597D01*
X127883541Y-89406457D01*
X127887118Y-89420736D01*
X127889278Y-89435297D01*
X127890000Y-89450000D01*
X127890000Y-90625000D01*
X127889278Y-90639703D01*
X127887118Y-90654264D01*
X127883541Y-90668543D01*
X127878582Y-90682403D01*
X127872288Y-90695710D01*
X127864720Y-90708336D01*
X127855952Y-90720159D01*
X127846066Y-90731066D01*
X127835159Y-90740952D01*
X127823336Y-90749720D01*
X127810710Y-90757288D01*
X127797403Y-90763582D01*
X127783543Y-90768541D01*
X127769264Y-90772118D01*
X127754703Y-90774278D01*
X127740000Y-90775000D01*
X127440000Y-90775000D01*
X127425297Y-90774278D01*
X127410736Y-90772118D01*
X127396457Y-90768541D01*
X127382597Y-90763582D01*
X127369290Y-90757288D01*
X127356664Y-90749720D01*
X127344841Y-90740952D01*
X127333934Y-90731066D01*
X127324048Y-90720159D01*
X127315280Y-90708336D01*
X127307712Y-90695710D01*
X127301418Y-90682403D01*
X127296459Y-90668543D01*
X127292882Y-90654264D01*
X127290722Y-90639703D01*
X127290000Y-90625000D01*
X127290000Y-89450000D01*
X127290722Y-89435297D01*
X127292882Y-89420736D01*
X127296459Y-89406457D01*
X127301418Y-89392597D01*
X127307712Y-89379290D01*
X127315280Y-89366664D01*
X127324048Y-89354841D01*
X127333934Y-89343934D01*
X127344841Y-89334048D01*
X127356664Y-89325280D01*
X127369290Y-89317712D01*
X127382597Y-89311418D01*
X127396457Y-89306459D01*
X127410736Y-89302882D01*
X127425297Y-89300722D01*
X127440000Y-89300000D01*
X127740000Y-89300000D01*
X127754703Y-89300722D01*
X127754703Y-89300722D01*
G37*
D14*
G04 #@! TD*
G04 #@! TO.P,U1,14*
G04 #@! TO.N,/D1*
X127590000Y-90037500D03*
D13*
G04 #@! TO.N,/D2*
G04 #@! TO.C,U1*
G36*
X129024703Y-89300722D02*
X129039264Y-89302882D01*
X129053543Y-89306459D01*
X129067403Y-89311418D01*
X129080710Y-89317712D01*
X129093336Y-89325280D01*
X129105159Y-89334048D01*
X129116066Y-89343934D01*
X129125952Y-89354841D01*
X129134720Y-89366664D01*
X129142288Y-89379290D01*
X129148582Y-89392597D01*
X129153541Y-89406457D01*
X129157118Y-89420736D01*
X129159278Y-89435297D01*
X129160000Y-89450000D01*
X129160000Y-90625000D01*
X129159278Y-90639703D01*
X129157118Y-90654264D01*
X129153541Y-90668543D01*
X129148582Y-90682403D01*
X129142288Y-90695710D01*
X129134720Y-90708336D01*
X129125952Y-90720159D01*
X129116066Y-90731066D01*
X129105159Y-90740952D01*
X129093336Y-90749720D01*
X129080710Y-90757288D01*
X129067403Y-90763582D01*
X129053543Y-90768541D01*
X129039264Y-90772118D01*
X129024703Y-90774278D01*
X129010000Y-90775000D01*
X128710000Y-90775000D01*
X128695297Y-90774278D01*
X128680736Y-90772118D01*
X128666457Y-90768541D01*
X128652597Y-90763582D01*
X128639290Y-90757288D01*
X128626664Y-90749720D01*
X128614841Y-90740952D01*
X128603934Y-90731066D01*
X128594048Y-90720159D01*
X128585280Y-90708336D01*
X128577712Y-90695710D01*
X128571418Y-90682403D01*
X128566459Y-90668543D01*
X128562882Y-90654264D01*
X128560722Y-90639703D01*
X128560000Y-90625000D01*
X128560000Y-89450000D01*
X128560722Y-89435297D01*
X128562882Y-89420736D01*
X128566459Y-89406457D01*
X128571418Y-89392597D01*
X128577712Y-89379290D01*
X128585280Y-89366664D01*
X128594048Y-89354841D01*
X128603934Y-89343934D01*
X128614841Y-89334048D01*
X128626664Y-89325280D01*
X128639290Y-89317712D01*
X128652597Y-89311418D01*
X128666457Y-89306459D01*
X128680736Y-89302882D01*
X128695297Y-89300722D01*
X128710000Y-89300000D01*
X129010000Y-89300000D01*
X129024703Y-89300722D01*
X129024703Y-89300722D01*
G37*
D14*
G04 #@! TD*
G04 #@! TO.P,U1,15*
G04 #@! TO.N,/D2*
X128860000Y-90037500D03*
D13*
G04 #@! TO.N,GND*
G04 #@! TO.C,U1*
G36*
X130294703Y-89300722D02*
X130309264Y-89302882D01*
X130323543Y-89306459D01*
X130337403Y-89311418D01*
X130350710Y-89317712D01*
X130363336Y-89325280D01*
X130375159Y-89334048D01*
X130386066Y-89343934D01*
X130395952Y-89354841D01*
X130404720Y-89366664D01*
X130412288Y-89379290D01*
X130418582Y-89392597D01*
X130423541Y-89406457D01*
X130427118Y-89420736D01*
X130429278Y-89435297D01*
X130430000Y-89450000D01*
X130430000Y-90625000D01*
X130429278Y-90639703D01*
X130427118Y-90654264D01*
X130423541Y-90668543D01*
X130418582Y-90682403D01*
X130412288Y-90695710D01*
X130404720Y-90708336D01*
X130395952Y-90720159D01*
X130386066Y-90731066D01*
X130375159Y-90740952D01*
X130363336Y-90749720D01*
X130350710Y-90757288D01*
X130337403Y-90763582D01*
X130323543Y-90768541D01*
X130309264Y-90772118D01*
X130294703Y-90774278D01*
X130280000Y-90775000D01*
X129980000Y-90775000D01*
X129965297Y-90774278D01*
X129950736Y-90772118D01*
X129936457Y-90768541D01*
X129922597Y-90763582D01*
X129909290Y-90757288D01*
X129896664Y-90749720D01*
X129884841Y-90740952D01*
X129873934Y-90731066D01*
X129864048Y-90720159D01*
X129855280Y-90708336D01*
X129847712Y-90695710D01*
X129841418Y-90682403D01*
X129836459Y-90668543D01*
X129832882Y-90654264D01*
X129830722Y-90639703D01*
X129830000Y-90625000D01*
X129830000Y-89450000D01*
X129830722Y-89435297D01*
X129832882Y-89420736D01*
X129836459Y-89406457D01*
X129841418Y-89392597D01*
X129847712Y-89379290D01*
X129855280Y-89366664D01*
X129864048Y-89354841D01*
X129873934Y-89343934D01*
X129884841Y-89334048D01*
X129896664Y-89325280D01*
X129909290Y-89317712D01*
X129922597Y-89311418D01*
X129936457Y-89306459D01*
X129950736Y-89302882D01*
X129965297Y-89300722D01*
X129980000Y-89300000D01*
X130280000Y-89300000D01*
X130294703Y-89300722D01*
X130294703Y-89300722D01*
G37*
D14*
G04 #@! TD*
G04 #@! TO.P,U1,16*
G04 #@! TO.N,GND*
X130130000Y-90037500D03*
D13*
G04 #@! TO.N,/D3*
G04 #@! TO.C,U1*
G36*
X131564703Y-89300722D02*
X131579264Y-89302882D01*
X131593543Y-89306459D01*
X131607403Y-89311418D01*
X131620710Y-89317712D01*
X131633336Y-89325280D01*
X131645159Y-89334048D01*
X131656066Y-89343934D01*
X131665952Y-89354841D01*
X131674720Y-89366664D01*
X131682288Y-89379290D01*
X131688582Y-89392597D01*
X131693541Y-89406457D01*
X131697118Y-89420736D01*
X131699278Y-89435297D01*
X131700000Y-89450000D01*
X131700000Y-90625000D01*
X131699278Y-90639703D01*
X131697118Y-90654264D01*
X131693541Y-90668543D01*
X131688582Y-90682403D01*
X131682288Y-90695710D01*
X131674720Y-90708336D01*
X131665952Y-90720159D01*
X131656066Y-90731066D01*
X131645159Y-90740952D01*
X131633336Y-90749720D01*
X131620710Y-90757288D01*
X131607403Y-90763582D01*
X131593543Y-90768541D01*
X131579264Y-90772118D01*
X131564703Y-90774278D01*
X131550000Y-90775000D01*
X131250000Y-90775000D01*
X131235297Y-90774278D01*
X131220736Y-90772118D01*
X131206457Y-90768541D01*
X131192597Y-90763582D01*
X131179290Y-90757288D01*
X131166664Y-90749720D01*
X131154841Y-90740952D01*
X131143934Y-90731066D01*
X131134048Y-90720159D01*
X131125280Y-90708336D01*
X131117712Y-90695710D01*
X131111418Y-90682403D01*
X131106459Y-90668543D01*
X131102882Y-90654264D01*
X131100722Y-90639703D01*
X131100000Y-90625000D01*
X131100000Y-89450000D01*
X131100722Y-89435297D01*
X131102882Y-89420736D01*
X131106459Y-89406457D01*
X131111418Y-89392597D01*
X131117712Y-89379290D01*
X131125280Y-89366664D01*
X131134048Y-89354841D01*
X131143934Y-89343934D01*
X131154841Y-89334048D01*
X131166664Y-89325280D01*
X131179290Y-89317712D01*
X131192597Y-89311418D01*
X131206457Y-89306459D01*
X131220736Y-89302882D01*
X131235297Y-89300722D01*
X131250000Y-89300000D01*
X131550000Y-89300000D01*
X131564703Y-89300722D01*
X131564703Y-89300722D01*
G37*
D14*
G04 #@! TD*
G04 #@! TO.P,U1,17*
G04 #@! TO.N,/D3*
X131400000Y-90037500D03*
D13*
G04 #@! TO.N,/D4*
G04 #@! TO.C,U1*
G36*
X132834703Y-89300722D02*
X132849264Y-89302882D01*
X132863543Y-89306459D01*
X132877403Y-89311418D01*
X132890710Y-89317712D01*
X132903336Y-89325280D01*
X132915159Y-89334048D01*
X132926066Y-89343934D01*
X132935952Y-89354841D01*
X132944720Y-89366664D01*
X132952288Y-89379290D01*
X132958582Y-89392597D01*
X132963541Y-89406457D01*
X132967118Y-89420736D01*
X132969278Y-89435297D01*
X132970000Y-89450000D01*
X132970000Y-90625000D01*
X132969278Y-90639703D01*
X132967118Y-90654264D01*
X132963541Y-90668543D01*
X132958582Y-90682403D01*
X132952288Y-90695710D01*
X132944720Y-90708336D01*
X132935952Y-90720159D01*
X132926066Y-90731066D01*
X132915159Y-90740952D01*
X132903336Y-90749720D01*
X132890710Y-90757288D01*
X132877403Y-90763582D01*
X132863543Y-90768541D01*
X132849264Y-90772118D01*
X132834703Y-90774278D01*
X132820000Y-90775000D01*
X132520000Y-90775000D01*
X132505297Y-90774278D01*
X132490736Y-90772118D01*
X132476457Y-90768541D01*
X132462597Y-90763582D01*
X132449290Y-90757288D01*
X132436664Y-90749720D01*
X132424841Y-90740952D01*
X132413934Y-90731066D01*
X132404048Y-90720159D01*
X132395280Y-90708336D01*
X132387712Y-90695710D01*
X132381418Y-90682403D01*
X132376459Y-90668543D01*
X132372882Y-90654264D01*
X132370722Y-90639703D01*
X132370000Y-90625000D01*
X132370000Y-89450000D01*
X132370722Y-89435297D01*
X132372882Y-89420736D01*
X132376459Y-89406457D01*
X132381418Y-89392597D01*
X132387712Y-89379290D01*
X132395280Y-89366664D01*
X132404048Y-89354841D01*
X132413934Y-89343934D01*
X132424841Y-89334048D01*
X132436664Y-89325280D01*
X132449290Y-89317712D01*
X132462597Y-89311418D01*
X132476457Y-89306459D01*
X132490736Y-89302882D01*
X132505297Y-89300722D01*
X132520000Y-89300000D01*
X132820000Y-89300000D01*
X132834703Y-89300722D01*
X132834703Y-89300722D01*
G37*
D14*
G04 #@! TD*
G04 #@! TO.P,U1,18*
G04 #@! TO.N,/D4*
X132670000Y-90037500D03*
D13*
G04 #@! TO.N,/D5*
G04 #@! TO.C,U1*
G36*
X134104703Y-89300722D02*
X134119264Y-89302882D01*
X134133543Y-89306459D01*
X134147403Y-89311418D01*
X134160710Y-89317712D01*
X134173336Y-89325280D01*
X134185159Y-89334048D01*
X134196066Y-89343934D01*
X134205952Y-89354841D01*
X134214720Y-89366664D01*
X134222288Y-89379290D01*
X134228582Y-89392597D01*
X134233541Y-89406457D01*
X134237118Y-89420736D01*
X134239278Y-89435297D01*
X134240000Y-89450000D01*
X134240000Y-90625000D01*
X134239278Y-90639703D01*
X134237118Y-90654264D01*
X134233541Y-90668543D01*
X134228582Y-90682403D01*
X134222288Y-90695710D01*
X134214720Y-90708336D01*
X134205952Y-90720159D01*
X134196066Y-90731066D01*
X134185159Y-90740952D01*
X134173336Y-90749720D01*
X134160710Y-90757288D01*
X134147403Y-90763582D01*
X134133543Y-90768541D01*
X134119264Y-90772118D01*
X134104703Y-90774278D01*
X134090000Y-90775000D01*
X133790000Y-90775000D01*
X133775297Y-90774278D01*
X133760736Y-90772118D01*
X133746457Y-90768541D01*
X133732597Y-90763582D01*
X133719290Y-90757288D01*
X133706664Y-90749720D01*
X133694841Y-90740952D01*
X133683934Y-90731066D01*
X133674048Y-90720159D01*
X133665280Y-90708336D01*
X133657712Y-90695710D01*
X133651418Y-90682403D01*
X133646459Y-90668543D01*
X133642882Y-90654264D01*
X133640722Y-90639703D01*
X133640000Y-90625000D01*
X133640000Y-89450000D01*
X133640722Y-89435297D01*
X133642882Y-89420736D01*
X133646459Y-89406457D01*
X133651418Y-89392597D01*
X133657712Y-89379290D01*
X133665280Y-89366664D01*
X133674048Y-89354841D01*
X133683934Y-89343934D01*
X133694841Y-89334048D01*
X133706664Y-89325280D01*
X133719290Y-89317712D01*
X133732597Y-89311418D01*
X133746457Y-89306459D01*
X133760736Y-89302882D01*
X133775297Y-89300722D01*
X133790000Y-89300000D01*
X134090000Y-89300000D01*
X134104703Y-89300722D01*
X134104703Y-89300722D01*
G37*
D14*
G04 #@! TD*
G04 #@! TO.P,U1,19*
G04 #@! TO.N,/D5*
X133940000Y-90037500D03*
D13*
G04 #@! TO.N,/D6*
G04 #@! TO.C,U1*
G36*
X135374703Y-89300722D02*
X135389264Y-89302882D01*
X135403543Y-89306459D01*
X135417403Y-89311418D01*
X135430710Y-89317712D01*
X135443336Y-89325280D01*
X135455159Y-89334048D01*
X135466066Y-89343934D01*
X135475952Y-89354841D01*
X135484720Y-89366664D01*
X135492288Y-89379290D01*
X135498582Y-89392597D01*
X135503541Y-89406457D01*
X135507118Y-89420736D01*
X135509278Y-89435297D01*
X135510000Y-89450000D01*
X135510000Y-90625000D01*
X135509278Y-90639703D01*
X135507118Y-90654264D01*
X135503541Y-90668543D01*
X135498582Y-90682403D01*
X135492288Y-90695710D01*
X135484720Y-90708336D01*
X135475952Y-90720159D01*
X135466066Y-90731066D01*
X135455159Y-90740952D01*
X135443336Y-90749720D01*
X135430710Y-90757288D01*
X135417403Y-90763582D01*
X135403543Y-90768541D01*
X135389264Y-90772118D01*
X135374703Y-90774278D01*
X135360000Y-90775000D01*
X135060000Y-90775000D01*
X135045297Y-90774278D01*
X135030736Y-90772118D01*
X135016457Y-90768541D01*
X135002597Y-90763582D01*
X134989290Y-90757288D01*
X134976664Y-90749720D01*
X134964841Y-90740952D01*
X134953934Y-90731066D01*
X134944048Y-90720159D01*
X134935280Y-90708336D01*
X134927712Y-90695710D01*
X134921418Y-90682403D01*
X134916459Y-90668543D01*
X134912882Y-90654264D01*
X134910722Y-90639703D01*
X134910000Y-90625000D01*
X134910000Y-89450000D01*
X134910722Y-89435297D01*
X134912882Y-89420736D01*
X134916459Y-89406457D01*
X134921418Y-89392597D01*
X134927712Y-89379290D01*
X134935280Y-89366664D01*
X134944048Y-89354841D01*
X134953934Y-89343934D01*
X134964841Y-89334048D01*
X134976664Y-89325280D01*
X134989290Y-89317712D01*
X135002597Y-89311418D01*
X135016457Y-89306459D01*
X135030736Y-89302882D01*
X135045297Y-89300722D01*
X135060000Y-89300000D01*
X135360000Y-89300000D01*
X135374703Y-89300722D01*
X135374703Y-89300722D01*
G37*
D14*
G04 #@! TD*
G04 #@! TO.P,U1,20*
G04 #@! TO.N,/D6*
X135210000Y-90037500D03*
D13*
G04 #@! TO.N,/D7*
G04 #@! TO.C,U1*
G36*
X137564703Y-87980722D02*
X137579264Y-87982882D01*
X137593543Y-87986459D01*
X137607403Y-87991418D01*
X137620710Y-87997712D01*
X137633336Y-88005280D01*
X137645159Y-88014048D01*
X137656066Y-88023934D01*
X137665952Y-88034841D01*
X137674720Y-88046664D01*
X137682288Y-88059290D01*
X137688582Y-88072597D01*
X137693541Y-88086457D01*
X137697118Y-88100736D01*
X137699278Y-88115297D01*
X137700000Y-88130000D01*
X137700000Y-88430000D01*
X137699278Y-88444703D01*
X137697118Y-88459264D01*
X137693541Y-88473543D01*
X137688582Y-88487403D01*
X137682288Y-88500710D01*
X137674720Y-88513336D01*
X137665952Y-88525159D01*
X137656066Y-88536066D01*
X137645159Y-88545952D01*
X137633336Y-88554720D01*
X137620710Y-88562288D01*
X137607403Y-88568582D01*
X137593543Y-88573541D01*
X137579264Y-88577118D01*
X137564703Y-88579278D01*
X137550000Y-88580000D01*
X136375000Y-88580000D01*
X136360297Y-88579278D01*
X136345736Y-88577118D01*
X136331457Y-88573541D01*
X136317597Y-88568582D01*
X136304290Y-88562288D01*
X136291664Y-88554720D01*
X136279841Y-88545952D01*
X136268934Y-88536066D01*
X136259048Y-88525159D01*
X136250280Y-88513336D01*
X136242712Y-88500710D01*
X136236418Y-88487403D01*
X136231459Y-88473543D01*
X136227882Y-88459264D01*
X136225722Y-88444703D01*
X136225000Y-88430000D01*
X136225000Y-88130000D01*
X136225722Y-88115297D01*
X136227882Y-88100736D01*
X136231459Y-88086457D01*
X136236418Y-88072597D01*
X136242712Y-88059290D01*
X136250280Y-88046664D01*
X136259048Y-88034841D01*
X136268934Y-88023934D01*
X136279841Y-88014048D01*
X136291664Y-88005280D01*
X136304290Y-87997712D01*
X136317597Y-87991418D01*
X136331457Y-87986459D01*
X136345736Y-87982882D01*
X136360297Y-87980722D01*
X136375000Y-87980000D01*
X137550000Y-87980000D01*
X137564703Y-87980722D01*
X137564703Y-87980722D01*
G37*
D14*
G04 #@! TD*
G04 #@! TO.P,U1,21*
G04 #@! TO.N,/D7*
X136962500Y-88280000D03*
D13*
G04 #@! TO.N,Net-(J1-Pad20)*
G04 #@! TO.C,U1*
G36*
X137564703Y-86710722D02*
X137579264Y-86712882D01*
X137593543Y-86716459D01*
X137607403Y-86721418D01*
X137620710Y-86727712D01*
X137633336Y-86735280D01*
X137645159Y-86744048D01*
X137656066Y-86753934D01*
X137665952Y-86764841D01*
X137674720Y-86776664D01*
X137682288Y-86789290D01*
X137688582Y-86802597D01*
X137693541Y-86816457D01*
X137697118Y-86830736D01*
X137699278Y-86845297D01*
X137700000Y-86860000D01*
X137700000Y-87160000D01*
X137699278Y-87174703D01*
X137697118Y-87189264D01*
X137693541Y-87203543D01*
X137688582Y-87217403D01*
X137682288Y-87230710D01*
X137674720Y-87243336D01*
X137665952Y-87255159D01*
X137656066Y-87266066D01*
X137645159Y-87275952D01*
X137633336Y-87284720D01*
X137620710Y-87292288D01*
X137607403Y-87298582D01*
X137593543Y-87303541D01*
X137579264Y-87307118D01*
X137564703Y-87309278D01*
X137550000Y-87310000D01*
X136375000Y-87310000D01*
X136360297Y-87309278D01*
X136345736Y-87307118D01*
X136331457Y-87303541D01*
X136317597Y-87298582D01*
X136304290Y-87292288D01*
X136291664Y-87284720D01*
X136279841Y-87275952D01*
X136268934Y-87266066D01*
X136259048Y-87255159D01*
X136250280Y-87243336D01*
X136242712Y-87230710D01*
X136236418Y-87217403D01*
X136231459Y-87203543D01*
X136227882Y-87189264D01*
X136225722Y-87174703D01*
X136225000Y-87160000D01*
X136225000Y-86860000D01*
X136225722Y-86845297D01*
X136227882Y-86830736D01*
X136231459Y-86816457D01*
X136236418Y-86802597D01*
X136242712Y-86789290D01*
X136250280Y-86776664D01*
X136259048Y-86764841D01*
X136268934Y-86753934D01*
X136279841Y-86744048D01*
X136291664Y-86735280D01*
X136304290Y-86727712D01*
X136317597Y-86721418D01*
X136331457Y-86716459D01*
X136345736Y-86712882D01*
X136360297Y-86710722D01*
X136375000Y-86710000D01*
X137550000Y-86710000D01*
X137564703Y-86710722D01*
X137564703Y-86710722D01*
G37*
D14*
G04 #@! TD*
G04 #@! TO.P,U1,22*
G04 #@! TO.N,Net-(J1-Pad20)*
X136962500Y-87010000D03*
D13*
G04 #@! TO.N,/A10*
G04 #@! TO.C,U1*
G36*
X137564703Y-85440722D02*
X137579264Y-85442882D01*
X137593543Y-85446459D01*
X137607403Y-85451418D01*
X137620710Y-85457712D01*
X137633336Y-85465280D01*
X137645159Y-85474048D01*
X137656066Y-85483934D01*
X137665952Y-85494841D01*
X137674720Y-85506664D01*
X137682288Y-85519290D01*
X137688582Y-85532597D01*
X137693541Y-85546457D01*
X137697118Y-85560736D01*
X137699278Y-85575297D01*
X137700000Y-85590000D01*
X137700000Y-85890000D01*
X137699278Y-85904703D01*
X137697118Y-85919264D01*
X137693541Y-85933543D01*
X137688582Y-85947403D01*
X137682288Y-85960710D01*
X137674720Y-85973336D01*
X137665952Y-85985159D01*
X137656066Y-85996066D01*
X137645159Y-86005952D01*
X137633336Y-86014720D01*
X137620710Y-86022288D01*
X137607403Y-86028582D01*
X137593543Y-86033541D01*
X137579264Y-86037118D01*
X137564703Y-86039278D01*
X137550000Y-86040000D01*
X136375000Y-86040000D01*
X136360297Y-86039278D01*
X136345736Y-86037118D01*
X136331457Y-86033541D01*
X136317597Y-86028582D01*
X136304290Y-86022288D01*
X136291664Y-86014720D01*
X136279841Y-86005952D01*
X136268934Y-85996066D01*
X136259048Y-85985159D01*
X136250280Y-85973336D01*
X136242712Y-85960710D01*
X136236418Y-85947403D01*
X136231459Y-85933543D01*
X136227882Y-85919264D01*
X136225722Y-85904703D01*
X136225000Y-85890000D01*
X136225000Y-85590000D01*
X136225722Y-85575297D01*
X136227882Y-85560736D01*
X136231459Y-85546457D01*
X136236418Y-85532597D01*
X136242712Y-85519290D01*
X136250280Y-85506664D01*
X136259048Y-85494841D01*
X136268934Y-85483934D01*
X136279841Y-85474048D01*
X136291664Y-85465280D01*
X136304290Y-85457712D01*
X136317597Y-85451418D01*
X136331457Y-85446459D01*
X136345736Y-85442882D01*
X136360297Y-85440722D01*
X136375000Y-85440000D01*
X137550000Y-85440000D01*
X137564703Y-85440722D01*
X137564703Y-85440722D01*
G37*
D14*
G04 #@! TD*
G04 #@! TO.P,U1,23*
G04 #@! TO.N,/A10*
X136962500Y-85740000D03*
D13*
G04 #@! TO.N,Net-(R2-Pad1)*
G04 #@! TO.C,U1*
G36*
X137564703Y-84170722D02*
X137579264Y-84172882D01*
X137593543Y-84176459D01*
X137607403Y-84181418D01*
X137620710Y-84187712D01*
X137633336Y-84195280D01*
X137645159Y-84204048D01*
X137656066Y-84213934D01*
X137665952Y-84224841D01*
X137674720Y-84236664D01*
X137682288Y-84249290D01*
X137688582Y-84262597D01*
X137693541Y-84276457D01*
X137697118Y-84290736D01*
X137699278Y-84305297D01*
X137700000Y-84320000D01*
X137700000Y-84620000D01*
X137699278Y-84634703D01*
X137697118Y-84649264D01*
X137693541Y-84663543D01*
X137688582Y-84677403D01*
X137682288Y-84690710D01*
X137674720Y-84703336D01*
X137665952Y-84715159D01*
X137656066Y-84726066D01*
X137645159Y-84735952D01*
X137633336Y-84744720D01*
X137620710Y-84752288D01*
X137607403Y-84758582D01*
X137593543Y-84763541D01*
X137579264Y-84767118D01*
X137564703Y-84769278D01*
X137550000Y-84770000D01*
X136375000Y-84770000D01*
X136360297Y-84769278D01*
X136345736Y-84767118D01*
X136331457Y-84763541D01*
X136317597Y-84758582D01*
X136304290Y-84752288D01*
X136291664Y-84744720D01*
X136279841Y-84735952D01*
X136268934Y-84726066D01*
X136259048Y-84715159D01*
X136250280Y-84703336D01*
X136242712Y-84690710D01*
X136236418Y-84677403D01*
X136231459Y-84663543D01*
X136227882Y-84649264D01*
X136225722Y-84634703D01*
X136225000Y-84620000D01*
X136225000Y-84320000D01*
X136225722Y-84305297D01*
X136227882Y-84290736D01*
X136231459Y-84276457D01*
X136236418Y-84262597D01*
X136242712Y-84249290D01*
X136250280Y-84236664D01*
X136259048Y-84224841D01*
X136268934Y-84213934D01*
X136279841Y-84204048D01*
X136291664Y-84195280D01*
X136304290Y-84187712D01*
X136317597Y-84181418D01*
X136331457Y-84176459D01*
X136345736Y-84172882D01*
X136360297Y-84170722D01*
X136375000Y-84170000D01*
X137550000Y-84170000D01*
X137564703Y-84170722D01*
X137564703Y-84170722D01*
G37*
D14*
G04 #@! TD*
G04 #@! TO.P,U1,24*
G04 #@! TO.N,Net-(R2-Pad1)*
X136962500Y-84470000D03*
D13*
G04 #@! TO.N,/A11*
G04 #@! TO.C,U1*
G36*
X137564703Y-82900722D02*
X137579264Y-82902882D01*
X137593543Y-82906459D01*
X137607403Y-82911418D01*
X137620710Y-82917712D01*
X137633336Y-82925280D01*
X137645159Y-82934048D01*
X137656066Y-82943934D01*
X137665952Y-82954841D01*
X137674720Y-82966664D01*
X137682288Y-82979290D01*
X137688582Y-82992597D01*
X137693541Y-83006457D01*
X137697118Y-83020736D01*
X137699278Y-83035297D01*
X137700000Y-83050000D01*
X137700000Y-83350000D01*
X137699278Y-83364703D01*
X137697118Y-83379264D01*
X137693541Y-83393543D01*
X137688582Y-83407403D01*
X137682288Y-83420710D01*
X137674720Y-83433336D01*
X137665952Y-83445159D01*
X137656066Y-83456066D01*
X137645159Y-83465952D01*
X137633336Y-83474720D01*
X137620710Y-83482288D01*
X137607403Y-83488582D01*
X137593543Y-83493541D01*
X137579264Y-83497118D01*
X137564703Y-83499278D01*
X137550000Y-83500000D01*
X136375000Y-83500000D01*
X136360297Y-83499278D01*
X136345736Y-83497118D01*
X136331457Y-83493541D01*
X136317597Y-83488582D01*
X136304290Y-83482288D01*
X136291664Y-83474720D01*
X136279841Y-83465952D01*
X136268934Y-83456066D01*
X136259048Y-83445159D01*
X136250280Y-83433336D01*
X136242712Y-83420710D01*
X136236418Y-83407403D01*
X136231459Y-83393543D01*
X136227882Y-83379264D01*
X136225722Y-83364703D01*
X136225000Y-83350000D01*
X136225000Y-83050000D01*
X136225722Y-83035297D01*
X136227882Y-83020736D01*
X136231459Y-83006457D01*
X136236418Y-82992597D01*
X136242712Y-82979290D01*
X136250280Y-82966664D01*
X136259048Y-82954841D01*
X136268934Y-82943934D01*
X136279841Y-82934048D01*
X136291664Y-82925280D01*
X136304290Y-82917712D01*
X136317597Y-82911418D01*
X136331457Y-82906459D01*
X136345736Y-82902882D01*
X136360297Y-82900722D01*
X136375000Y-82900000D01*
X137550000Y-82900000D01*
X137564703Y-82900722D01*
X137564703Y-82900722D01*
G37*
D14*
G04 #@! TD*
G04 #@! TO.P,U1,25*
G04 #@! TO.N,/A11*
X136962500Y-83200000D03*
D13*
G04 #@! TO.N,/A9*
G04 #@! TO.C,U1*
G36*
X137564703Y-81630722D02*
X137579264Y-81632882D01*
X137593543Y-81636459D01*
X137607403Y-81641418D01*
X137620710Y-81647712D01*
X137633336Y-81655280D01*
X137645159Y-81664048D01*
X137656066Y-81673934D01*
X137665952Y-81684841D01*
X137674720Y-81696664D01*
X137682288Y-81709290D01*
X137688582Y-81722597D01*
X137693541Y-81736457D01*
X137697118Y-81750736D01*
X137699278Y-81765297D01*
X137700000Y-81780000D01*
X137700000Y-82080000D01*
X137699278Y-82094703D01*
X137697118Y-82109264D01*
X137693541Y-82123543D01*
X137688582Y-82137403D01*
X137682288Y-82150710D01*
X137674720Y-82163336D01*
X137665952Y-82175159D01*
X137656066Y-82186066D01*
X137645159Y-82195952D01*
X137633336Y-82204720D01*
X137620710Y-82212288D01*
X137607403Y-82218582D01*
X137593543Y-82223541D01*
X137579264Y-82227118D01*
X137564703Y-82229278D01*
X137550000Y-82230000D01*
X136375000Y-82230000D01*
X136360297Y-82229278D01*
X136345736Y-82227118D01*
X136331457Y-82223541D01*
X136317597Y-82218582D01*
X136304290Y-82212288D01*
X136291664Y-82204720D01*
X136279841Y-82195952D01*
X136268934Y-82186066D01*
X136259048Y-82175159D01*
X136250280Y-82163336D01*
X136242712Y-82150710D01*
X136236418Y-82137403D01*
X136231459Y-82123543D01*
X136227882Y-82109264D01*
X136225722Y-82094703D01*
X136225000Y-82080000D01*
X136225000Y-81780000D01*
X136225722Y-81765297D01*
X136227882Y-81750736D01*
X136231459Y-81736457D01*
X136236418Y-81722597D01*
X136242712Y-81709290D01*
X136250280Y-81696664D01*
X136259048Y-81684841D01*
X136268934Y-81673934D01*
X136279841Y-81664048D01*
X136291664Y-81655280D01*
X136304290Y-81647712D01*
X136317597Y-81641418D01*
X136331457Y-81636459D01*
X136345736Y-81632882D01*
X136360297Y-81630722D01*
X136375000Y-81630000D01*
X137550000Y-81630000D01*
X137564703Y-81630722D01*
X137564703Y-81630722D01*
G37*
D14*
G04 #@! TD*
G04 #@! TO.P,U1,26*
G04 #@! TO.N,/A9*
X136962500Y-81930000D03*
D13*
G04 #@! TO.N,/A8*
G04 #@! TO.C,U1*
G36*
X137564703Y-80360722D02*
X137579264Y-80362882D01*
X137593543Y-80366459D01*
X137607403Y-80371418D01*
X137620710Y-80377712D01*
X137633336Y-80385280D01*
X137645159Y-80394048D01*
X137656066Y-80403934D01*
X137665952Y-80414841D01*
X137674720Y-80426664D01*
X137682288Y-80439290D01*
X137688582Y-80452597D01*
X137693541Y-80466457D01*
X137697118Y-80480736D01*
X137699278Y-80495297D01*
X137700000Y-80510000D01*
X137700000Y-80810000D01*
X137699278Y-80824703D01*
X137697118Y-80839264D01*
X137693541Y-80853543D01*
X137688582Y-80867403D01*
X137682288Y-80880710D01*
X137674720Y-80893336D01*
X137665952Y-80905159D01*
X137656066Y-80916066D01*
X137645159Y-80925952D01*
X137633336Y-80934720D01*
X137620710Y-80942288D01*
X137607403Y-80948582D01*
X137593543Y-80953541D01*
X137579264Y-80957118D01*
X137564703Y-80959278D01*
X137550000Y-80960000D01*
X136375000Y-80960000D01*
X136360297Y-80959278D01*
X136345736Y-80957118D01*
X136331457Y-80953541D01*
X136317597Y-80948582D01*
X136304290Y-80942288D01*
X136291664Y-80934720D01*
X136279841Y-80925952D01*
X136268934Y-80916066D01*
X136259048Y-80905159D01*
X136250280Y-80893336D01*
X136242712Y-80880710D01*
X136236418Y-80867403D01*
X136231459Y-80853543D01*
X136227882Y-80839264D01*
X136225722Y-80824703D01*
X136225000Y-80810000D01*
X136225000Y-80510000D01*
X136225722Y-80495297D01*
X136227882Y-80480736D01*
X136231459Y-80466457D01*
X136236418Y-80452597D01*
X136242712Y-80439290D01*
X136250280Y-80426664D01*
X136259048Y-80414841D01*
X136268934Y-80403934D01*
X136279841Y-80394048D01*
X136291664Y-80385280D01*
X136304290Y-80377712D01*
X136317597Y-80371418D01*
X136331457Y-80366459D01*
X136345736Y-80362882D01*
X136360297Y-80360722D01*
X136375000Y-80360000D01*
X137550000Y-80360000D01*
X137564703Y-80360722D01*
X137564703Y-80360722D01*
G37*
D14*
G04 #@! TD*
G04 #@! TO.P,U1,27*
G04 #@! TO.N,/A8*
X136962500Y-80660000D03*
D13*
G04 #@! TO.N,/A13*
G04 #@! TO.C,U1*
G36*
X137564703Y-79090722D02*
X137579264Y-79092882D01*
X137593543Y-79096459D01*
X137607403Y-79101418D01*
X137620710Y-79107712D01*
X137633336Y-79115280D01*
X137645159Y-79124048D01*
X137656066Y-79133934D01*
X137665952Y-79144841D01*
X137674720Y-79156664D01*
X137682288Y-79169290D01*
X137688582Y-79182597D01*
X137693541Y-79196457D01*
X137697118Y-79210736D01*
X137699278Y-79225297D01*
X137700000Y-79240000D01*
X137700000Y-79540000D01*
X137699278Y-79554703D01*
X137697118Y-79569264D01*
X137693541Y-79583543D01*
X137688582Y-79597403D01*
X137682288Y-79610710D01*
X137674720Y-79623336D01*
X137665952Y-79635159D01*
X137656066Y-79646066D01*
X137645159Y-79655952D01*
X137633336Y-79664720D01*
X137620710Y-79672288D01*
X137607403Y-79678582D01*
X137593543Y-79683541D01*
X137579264Y-79687118D01*
X137564703Y-79689278D01*
X137550000Y-79690000D01*
X136375000Y-79690000D01*
X136360297Y-79689278D01*
X136345736Y-79687118D01*
X136331457Y-79683541D01*
X136317597Y-79678582D01*
X136304290Y-79672288D01*
X136291664Y-79664720D01*
X136279841Y-79655952D01*
X136268934Y-79646066D01*
X136259048Y-79635159D01*
X136250280Y-79623336D01*
X136242712Y-79610710D01*
X136236418Y-79597403D01*
X136231459Y-79583543D01*
X136227882Y-79569264D01*
X136225722Y-79554703D01*
X136225000Y-79540000D01*
X136225000Y-79240000D01*
X136225722Y-79225297D01*
X136227882Y-79210736D01*
X136231459Y-79196457D01*
X136236418Y-79182597D01*
X136242712Y-79169290D01*
X136250280Y-79156664D01*
X136259048Y-79144841D01*
X136268934Y-79133934D01*
X136279841Y-79124048D01*
X136291664Y-79115280D01*
X136304290Y-79107712D01*
X136317597Y-79101418D01*
X136331457Y-79096459D01*
X136345736Y-79092882D01*
X136360297Y-79090722D01*
X136375000Y-79090000D01*
X137550000Y-79090000D01*
X137564703Y-79090722D01*
X137564703Y-79090722D01*
G37*
D14*
G04 #@! TD*
G04 #@! TO.P,U1,28*
G04 #@! TO.N,/A13*
X136962500Y-79390000D03*
D13*
G04 #@! TO.N,/A14*
G04 #@! TO.C,U1*
G36*
X137564703Y-77820722D02*
X137579264Y-77822882D01*
X137593543Y-77826459D01*
X137607403Y-77831418D01*
X137620710Y-77837712D01*
X137633336Y-77845280D01*
X137645159Y-77854048D01*
X137656066Y-77863934D01*
X137665952Y-77874841D01*
X137674720Y-77886664D01*
X137682288Y-77899290D01*
X137688582Y-77912597D01*
X137693541Y-77926457D01*
X137697118Y-77940736D01*
X137699278Y-77955297D01*
X137700000Y-77970000D01*
X137700000Y-78270000D01*
X137699278Y-78284703D01*
X137697118Y-78299264D01*
X137693541Y-78313543D01*
X137688582Y-78327403D01*
X137682288Y-78340710D01*
X137674720Y-78353336D01*
X137665952Y-78365159D01*
X137656066Y-78376066D01*
X137645159Y-78385952D01*
X137633336Y-78394720D01*
X137620710Y-78402288D01*
X137607403Y-78408582D01*
X137593543Y-78413541D01*
X137579264Y-78417118D01*
X137564703Y-78419278D01*
X137550000Y-78420000D01*
X136375000Y-78420000D01*
X136360297Y-78419278D01*
X136345736Y-78417118D01*
X136331457Y-78413541D01*
X136317597Y-78408582D01*
X136304290Y-78402288D01*
X136291664Y-78394720D01*
X136279841Y-78385952D01*
X136268934Y-78376066D01*
X136259048Y-78365159D01*
X136250280Y-78353336D01*
X136242712Y-78340710D01*
X136236418Y-78327403D01*
X136231459Y-78313543D01*
X136227882Y-78299264D01*
X136225722Y-78284703D01*
X136225000Y-78270000D01*
X136225000Y-77970000D01*
X136225722Y-77955297D01*
X136227882Y-77940736D01*
X136231459Y-77926457D01*
X136236418Y-77912597D01*
X136242712Y-77899290D01*
X136250280Y-77886664D01*
X136259048Y-77874841D01*
X136268934Y-77863934D01*
X136279841Y-77854048D01*
X136291664Y-77845280D01*
X136304290Y-77837712D01*
X136317597Y-77831418D01*
X136331457Y-77826459D01*
X136345736Y-77822882D01*
X136360297Y-77820722D01*
X136375000Y-77820000D01*
X137550000Y-77820000D01*
X137564703Y-77820722D01*
X137564703Y-77820722D01*
G37*
D14*
G04 #@! TD*
G04 #@! TO.P,U1,29*
G04 #@! TO.N,/A14*
X136962500Y-78120000D03*
D13*
G04 #@! TO.N,Net-(U1-Pad30)*
G04 #@! TO.C,U1*
G36*
X135374703Y-75625722D02*
X135389264Y-75627882D01*
X135403543Y-75631459D01*
X135417403Y-75636418D01*
X135430710Y-75642712D01*
X135443336Y-75650280D01*
X135455159Y-75659048D01*
X135466066Y-75668934D01*
X135475952Y-75679841D01*
X135484720Y-75691664D01*
X135492288Y-75704290D01*
X135498582Y-75717597D01*
X135503541Y-75731457D01*
X135507118Y-75745736D01*
X135509278Y-75760297D01*
X135510000Y-75775000D01*
X135510000Y-76950000D01*
X135509278Y-76964703D01*
X135507118Y-76979264D01*
X135503541Y-76993543D01*
X135498582Y-77007403D01*
X135492288Y-77020710D01*
X135484720Y-77033336D01*
X135475952Y-77045159D01*
X135466066Y-77056066D01*
X135455159Y-77065952D01*
X135443336Y-77074720D01*
X135430710Y-77082288D01*
X135417403Y-77088582D01*
X135403543Y-77093541D01*
X135389264Y-77097118D01*
X135374703Y-77099278D01*
X135360000Y-77100000D01*
X135060000Y-77100000D01*
X135045297Y-77099278D01*
X135030736Y-77097118D01*
X135016457Y-77093541D01*
X135002597Y-77088582D01*
X134989290Y-77082288D01*
X134976664Y-77074720D01*
X134964841Y-77065952D01*
X134953934Y-77056066D01*
X134944048Y-77045159D01*
X134935280Y-77033336D01*
X134927712Y-77020710D01*
X134921418Y-77007403D01*
X134916459Y-76993543D01*
X134912882Y-76979264D01*
X134910722Y-76964703D01*
X134910000Y-76950000D01*
X134910000Y-75775000D01*
X134910722Y-75760297D01*
X134912882Y-75745736D01*
X134916459Y-75731457D01*
X134921418Y-75717597D01*
X134927712Y-75704290D01*
X134935280Y-75691664D01*
X134944048Y-75679841D01*
X134953934Y-75668934D01*
X134964841Y-75659048D01*
X134976664Y-75650280D01*
X134989290Y-75642712D01*
X135002597Y-75636418D01*
X135016457Y-75631459D01*
X135030736Y-75627882D01*
X135045297Y-75625722D01*
X135060000Y-75625000D01*
X135360000Y-75625000D01*
X135374703Y-75625722D01*
X135374703Y-75625722D01*
G37*
D14*
G04 #@! TD*
G04 #@! TO.P,U1,30*
G04 #@! TO.N,Net-(U1-Pad30)*
X135210000Y-76362500D03*
D13*
G04 #@! TO.N,Net-(R1-Pad2)*
G04 #@! TO.C,U1*
G36*
X134104703Y-75625722D02*
X134119264Y-75627882D01*
X134133543Y-75631459D01*
X134147403Y-75636418D01*
X134160710Y-75642712D01*
X134173336Y-75650280D01*
X134185159Y-75659048D01*
X134196066Y-75668934D01*
X134205952Y-75679841D01*
X134214720Y-75691664D01*
X134222288Y-75704290D01*
X134228582Y-75717597D01*
X134233541Y-75731457D01*
X134237118Y-75745736D01*
X134239278Y-75760297D01*
X134240000Y-75775000D01*
X134240000Y-76950000D01*
X134239278Y-76964703D01*
X134237118Y-76979264D01*
X134233541Y-76993543D01*
X134228582Y-77007403D01*
X134222288Y-77020710D01*
X134214720Y-77033336D01*
X134205952Y-77045159D01*
X134196066Y-77056066D01*
X134185159Y-77065952D01*
X134173336Y-77074720D01*
X134160710Y-77082288D01*
X134147403Y-77088582D01*
X134133543Y-77093541D01*
X134119264Y-77097118D01*
X134104703Y-77099278D01*
X134090000Y-77100000D01*
X133790000Y-77100000D01*
X133775297Y-77099278D01*
X133760736Y-77097118D01*
X133746457Y-77093541D01*
X133732597Y-77088582D01*
X133719290Y-77082288D01*
X133706664Y-77074720D01*
X133694841Y-77065952D01*
X133683934Y-77056066D01*
X133674048Y-77045159D01*
X133665280Y-77033336D01*
X133657712Y-77020710D01*
X133651418Y-77007403D01*
X133646459Y-76993543D01*
X133642882Y-76979264D01*
X133640722Y-76964703D01*
X133640000Y-76950000D01*
X133640000Y-75775000D01*
X133640722Y-75760297D01*
X133642882Y-75745736D01*
X133646459Y-75731457D01*
X133651418Y-75717597D01*
X133657712Y-75704290D01*
X133665280Y-75691664D01*
X133674048Y-75679841D01*
X133683934Y-75668934D01*
X133694841Y-75659048D01*
X133706664Y-75650280D01*
X133719290Y-75642712D01*
X133732597Y-75636418D01*
X133746457Y-75631459D01*
X133760736Y-75627882D01*
X133775297Y-75625722D01*
X133790000Y-75625000D01*
X134090000Y-75625000D01*
X134104703Y-75625722D01*
X134104703Y-75625722D01*
G37*
D14*
G04 #@! TD*
G04 #@! TO.P,U1,31*
G04 #@! TO.N,Net-(R1-Pad2)*
X133940000Y-76362500D03*
D13*
G04 #@! TO.N,+5V*
G04 #@! TO.C,U1*
G36*
X132834703Y-75625722D02*
X132849264Y-75627882D01*
X132863543Y-75631459D01*
X132877403Y-75636418D01*
X132890710Y-75642712D01*
X132903336Y-75650280D01*
X132915159Y-75659048D01*
X132926066Y-75668934D01*
X132935952Y-75679841D01*
X132944720Y-75691664D01*
X132952288Y-75704290D01*
X132958582Y-75717597D01*
X132963541Y-75731457D01*
X132967118Y-75745736D01*
X132969278Y-75760297D01*
X132970000Y-75775000D01*
X132970000Y-76950000D01*
X132969278Y-76964703D01*
X132967118Y-76979264D01*
X132963541Y-76993543D01*
X132958582Y-77007403D01*
X132952288Y-77020710D01*
X132944720Y-77033336D01*
X132935952Y-77045159D01*
X132926066Y-77056066D01*
X132915159Y-77065952D01*
X132903336Y-77074720D01*
X132890710Y-77082288D01*
X132877403Y-77088582D01*
X132863543Y-77093541D01*
X132849264Y-77097118D01*
X132834703Y-77099278D01*
X132820000Y-77100000D01*
X132520000Y-77100000D01*
X132505297Y-77099278D01*
X132490736Y-77097118D01*
X132476457Y-77093541D01*
X132462597Y-77088582D01*
X132449290Y-77082288D01*
X132436664Y-77074720D01*
X132424841Y-77065952D01*
X132413934Y-77056066D01*
X132404048Y-77045159D01*
X132395280Y-77033336D01*
X132387712Y-77020710D01*
X132381418Y-77007403D01*
X132376459Y-76993543D01*
X132372882Y-76979264D01*
X132370722Y-76964703D01*
X132370000Y-76950000D01*
X132370000Y-75775000D01*
X132370722Y-75760297D01*
X132372882Y-75745736D01*
X132376459Y-75731457D01*
X132381418Y-75717597D01*
X132387712Y-75704290D01*
X132395280Y-75691664D01*
X132404048Y-75679841D01*
X132413934Y-75668934D01*
X132424841Y-75659048D01*
X132436664Y-75650280D01*
X132449290Y-75642712D01*
X132462597Y-75636418D01*
X132476457Y-75631459D01*
X132490736Y-75627882D01*
X132505297Y-75625722D01*
X132520000Y-75625000D01*
X132820000Y-75625000D01*
X132834703Y-75625722D01*
X132834703Y-75625722D01*
G37*
D14*
G04 #@! TD*
G04 #@! TO.P,U1,32*
G04 #@! TO.N,+5V*
X132670000Y-76362500D03*
D15*
G04 #@! TO.N,+5V*
X132670000Y-76362500D03*
G04 #@! TO.N,Net-(R1-Pad2)*
X133950000Y-76350000D03*
G04 #@! TO.N,GND*
X130130000Y-90037500D03*
G04 #@! TO.N,Net-(R2-Pad1)*
X137000000Y-84450000D03*
G04 #@! TO.N,/A6*
X125800000Y-79400000D03*
G04 #@! TO.N,/A5*
X125800000Y-80650000D03*
G04 #@! TO.N,/A0*
X125800000Y-87000000D03*
G04 #@! TO.N,/A11*
X137000000Y-83200000D03*
G04 #@! TO.N,/A9*
X137000000Y-81950000D03*
G04 #@! TO.N,/A8*
X137000000Y-80650000D03*
G04 #@! TO.N,/A13*
X135850000Y-79390000D03*
G04 #@! TD*
D16*
G04 #@! TO.N,+5V*
X137883631Y-67075001D02*
X137858630Y-67050000D01*
X139015001Y-67075001D02*
X137883631Y-67075001D01*
X137858630Y-67050000D02*
X136750000Y-67050000D01*
X132670000Y-71130000D02*
X132670000Y-76362500D01*
X136750000Y-67050000D02*
X132670000Y-71130000D01*
X132670000Y-76362500D02*
X132670000Y-76362500D01*
G04 #@! TO.N,GND*
X130130000Y-90875000D02*
X130130000Y-90037500D01*
X130130000Y-94871372D02*
X130130000Y-90875000D01*
X124906371Y-100095001D02*
X130130000Y-94871372D01*
X123775001Y-100095001D02*
X124906371Y-100095001D01*
X130130000Y-90037500D02*
X130130000Y-90037500D01*
D17*
G04 #@! TO.N,/A16*
X138004990Y-81304990D02*
X132504990Y-81304990D01*
X139015001Y-82315001D02*
X138004990Y-81304990D01*
X130130000Y-78930000D02*
X130130000Y-76362500D01*
X132504990Y-81304990D02*
X130130000Y-78930000D01*
G04 #@! TO.N,/A15*
X125175001Y-67075001D02*
X123775001Y-67075001D01*
X128860000Y-76362500D02*
X128860000Y-70760000D01*
X128860000Y-70760000D02*
X125175001Y-67075001D01*
G04 #@! TO.N,/A12*
X127590000Y-76362500D02*
X127590000Y-72890000D01*
X124315001Y-69615001D02*
X123775001Y-69615001D01*
X127590000Y-72890000D02*
X124315001Y-69615001D01*
G04 #@! TO.N,/A7*
X125837500Y-75500000D02*
X125837500Y-78120000D01*
X125837500Y-73837500D02*
X125837500Y-75500000D01*
X123775001Y-72155001D02*
X124155001Y-72155001D01*
X124155001Y-72155001D02*
X125837500Y-73837500D01*
G04 #@! TO.N,/A4*
X125407500Y-81500000D02*
X125837500Y-81930000D01*
X124900000Y-81500000D02*
X125407500Y-81500000D01*
X123775001Y-79775001D02*
X123775001Y-80375001D01*
X123775001Y-80375001D02*
X124900000Y-81500000D01*
G04 #@! TO.N,/A3*
X124660000Y-83200000D02*
X123775001Y-82315001D01*
X125837500Y-83200000D02*
X124660000Y-83200000D01*
G04 #@! TO.N,/A2*
X124160002Y-84470000D02*
X123775001Y-84855001D01*
X125837500Y-84470000D02*
X124160002Y-84470000D01*
G04 #@! TO.N,/A1*
X124600000Y-86570002D02*
X123775001Y-87395001D01*
X124600000Y-86000000D02*
X124600000Y-86570002D01*
X125837500Y-85740000D02*
X124860000Y-85740000D01*
X124860000Y-85740000D02*
X124600000Y-86000000D01*
G04 #@! TO.N,/D0*
X125837500Y-91062500D02*
X125837500Y-89500000D01*
X123775001Y-92475001D02*
X124424999Y-92475001D01*
X125837500Y-89500000D02*
X125837500Y-88280000D01*
X124424999Y-92475001D02*
X125837500Y-91062500D01*
G04 #@! TO.N,/D1*
X127590000Y-91200000D02*
X127590000Y-90037500D01*
X127590000Y-92331372D02*
X127590000Y-91200000D01*
X124906371Y-95015001D02*
X127590000Y-92331372D01*
X123775001Y-95015001D02*
X124906371Y-95015001D01*
G04 #@! TO.N,/D2*
X128860000Y-90875000D02*
X128860000Y-90037500D01*
X128860000Y-93601372D02*
X128860000Y-90875000D01*
X124906371Y-97555001D02*
X128860000Y-93601372D01*
X123775001Y-97555001D02*
X124906371Y-97555001D01*
G04 #@! TO.N,/D3*
X137004999Y-100095001D02*
X139015001Y-100095001D01*
X137000000Y-100100000D02*
X137004999Y-100095001D01*
X131400000Y-90037500D02*
X131400000Y-94500000D01*
X131400000Y-94500000D02*
X137000000Y-100100000D01*
G04 #@! TO.N,/D4*
X132670000Y-91300000D02*
X132670000Y-90037500D01*
X132670000Y-92770000D02*
X132670000Y-91300000D01*
X139015001Y-97555001D02*
X137455001Y-97555001D01*
X137455001Y-97555001D02*
X132670000Y-92770000D01*
G04 #@! TO.N,/D5*
X137515001Y-95015001D02*
X139015001Y-95015001D01*
X133940000Y-90037500D02*
X133940000Y-91440000D01*
X133940000Y-91440000D02*
X137515001Y-95015001D01*
G04 #@! TO.N,/D6*
X136577500Y-90037500D02*
X139015001Y-92475001D01*
X135210000Y-90037500D02*
X136577500Y-90037500D01*
G04 #@! TO.N,/D7*
X138617501Y-89935001D02*
X139015001Y-89935001D01*
X136962500Y-88280000D02*
X138617501Y-89935001D01*
G04 #@! TO.N,Net-(J1-Pad20)*
X138630000Y-87010000D02*
X139015001Y-87395001D01*
X136962500Y-87010000D02*
X138630000Y-87010000D01*
G04 #@! TO.N,/A10*
X138130002Y-85740000D02*
X139015001Y-84855001D01*
X136962500Y-85740000D02*
X138130002Y-85740000D01*
G04 #@! TO.N,/A13*
X136962500Y-79390000D02*
X135850000Y-79390000D01*
X135850000Y-79390000D02*
X135800000Y-79390000D01*
G04 #@! TO.N,/A14*
X136962500Y-78120000D02*
X136962500Y-71600000D01*
X136962500Y-71600000D02*
X136962500Y-71437500D01*
X136962500Y-71437500D02*
X137600000Y-70800000D01*
X137600000Y-70800000D02*
X137900000Y-70500000D01*
X137900000Y-70500000D02*
X138000000Y-70400000D01*
X138000000Y-70400000D02*
X138200000Y-70200000D01*
X138200000Y-70200000D02*
X138300000Y-70100000D01*
X138784999Y-69615001D02*
X138200000Y-70200000D01*
X139015001Y-69615001D02*
X138784999Y-69615001D01*
G04 #@! TD*
M02*
