G04 #@! TF.GenerationSoftware,KiCad,Pcbnew,5.0.2+dfsg1-1*
G04 #@! TF.CreationDate,2021-06-16T12:20:31+01:00*
G04 #@! TF.ProjectId,SE PLCC ROM,53452050-4c43-4432-9052-4f4d2e6b6963,rev?*
G04 #@! TF.SameCoordinates,Original*
G04 #@! TF.FileFunction,Soldermask,Top*
G04 #@! TF.FilePolarity,Negative*
%FSLAX46Y46*%
G04 Gerber Fmt 4.6, Leading zero omitted, Abs format (unit mm)*
G04 Created by KiCad (PCBNEW 5.0.2+dfsg1-1) date Wed 16 Jun 2021 12:20:31 BST*
%MOMM*%
%LPD*%
G01*
G04 APERTURE LIST*
%ADD10C,0.150000*%
%ADD11C,0.100000*%
G04 APERTURE END LIST*
D10*
X132400000Y-65450000D02*
G75*
G02X130400000Y-65450000I-1000000J0D01*
G01*
X140150000Y-65450000D02*
X132450000Y-65450000D01*
X122650000Y-65450000D02*
X130350000Y-65450000D01*
X122650000Y-65450000D02*
X122650000Y-101700000D01*
X140150000Y-101700000D02*
X122650000Y-101700000D01*
X140150000Y-65450000D02*
X140150000Y-101700000D01*
D11*
G36*
X139181822Y-99256314D02*
X139181825Y-99256315D01*
X139181826Y-99256315D01*
X139342240Y-99304976D01*
X139342242Y-99304977D01*
X139342245Y-99304978D01*
X139490079Y-99383996D01*
X139619660Y-99490342D01*
X139726006Y-99619923D01*
X139805024Y-99767757D01*
X139853688Y-99928180D01*
X139870118Y-100095001D01*
X139853688Y-100261822D01*
X139805024Y-100422245D01*
X139726006Y-100570079D01*
X139619660Y-100699660D01*
X139490079Y-100806006D01*
X139342245Y-100885024D01*
X139342242Y-100885025D01*
X139342240Y-100885026D01*
X139181826Y-100933687D01*
X139181825Y-100933687D01*
X139181822Y-100933688D01*
X139056805Y-100946001D01*
X138973197Y-100946001D01*
X138848180Y-100933688D01*
X138848177Y-100933687D01*
X138848176Y-100933687D01*
X138687762Y-100885026D01*
X138687760Y-100885025D01*
X138687757Y-100885024D01*
X138539923Y-100806006D01*
X138410342Y-100699660D01*
X138303996Y-100570079D01*
X138224978Y-100422245D01*
X138176314Y-100261822D01*
X138159884Y-100095001D01*
X138176314Y-99928180D01*
X138224978Y-99767757D01*
X138303996Y-99619923D01*
X138410342Y-99490342D01*
X138539923Y-99383996D01*
X138687757Y-99304978D01*
X138687760Y-99304977D01*
X138687762Y-99304976D01*
X138848176Y-99256315D01*
X138848177Y-99256315D01*
X138848180Y-99256314D01*
X138973197Y-99244001D01*
X139056805Y-99244001D01*
X139181822Y-99256314D01*
X139181822Y-99256314D01*
G37*
G36*
X123941822Y-99256314D02*
X123941825Y-99256315D01*
X123941826Y-99256315D01*
X124102240Y-99304976D01*
X124102242Y-99304977D01*
X124102245Y-99304978D01*
X124250079Y-99383996D01*
X124379660Y-99490342D01*
X124486006Y-99619923D01*
X124565024Y-99767757D01*
X124613688Y-99928180D01*
X124630118Y-100095001D01*
X124613688Y-100261822D01*
X124565024Y-100422245D01*
X124486006Y-100570079D01*
X124379660Y-100699660D01*
X124250079Y-100806006D01*
X124102245Y-100885024D01*
X124102242Y-100885025D01*
X124102240Y-100885026D01*
X123941826Y-100933687D01*
X123941825Y-100933687D01*
X123941822Y-100933688D01*
X123816805Y-100946001D01*
X123733197Y-100946001D01*
X123608180Y-100933688D01*
X123608177Y-100933687D01*
X123608176Y-100933687D01*
X123447762Y-100885026D01*
X123447760Y-100885025D01*
X123447757Y-100885024D01*
X123299923Y-100806006D01*
X123170342Y-100699660D01*
X123063996Y-100570079D01*
X122984978Y-100422245D01*
X122936314Y-100261822D01*
X122919884Y-100095001D01*
X122936314Y-99928180D01*
X122984978Y-99767757D01*
X123063996Y-99619923D01*
X123170342Y-99490342D01*
X123299923Y-99383996D01*
X123447757Y-99304978D01*
X123447760Y-99304977D01*
X123447762Y-99304976D01*
X123608176Y-99256315D01*
X123608177Y-99256315D01*
X123608180Y-99256314D01*
X123733197Y-99244001D01*
X123816805Y-99244001D01*
X123941822Y-99256314D01*
X123941822Y-99256314D01*
G37*
G36*
X123941822Y-96716314D02*
X123941825Y-96716315D01*
X123941826Y-96716315D01*
X124102240Y-96764976D01*
X124102242Y-96764977D01*
X124102245Y-96764978D01*
X124250079Y-96843996D01*
X124379660Y-96950342D01*
X124486006Y-97079923D01*
X124565024Y-97227757D01*
X124613688Y-97388180D01*
X124630118Y-97555001D01*
X124613688Y-97721822D01*
X124565024Y-97882245D01*
X124486006Y-98030079D01*
X124379660Y-98159660D01*
X124250079Y-98266006D01*
X124102245Y-98345024D01*
X124102242Y-98345025D01*
X124102240Y-98345026D01*
X123941826Y-98393687D01*
X123941825Y-98393687D01*
X123941822Y-98393688D01*
X123816805Y-98406001D01*
X123733197Y-98406001D01*
X123608180Y-98393688D01*
X123608177Y-98393687D01*
X123608176Y-98393687D01*
X123447762Y-98345026D01*
X123447760Y-98345025D01*
X123447757Y-98345024D01*
X123299923Y-98266006D01*
X123170342Y-98159660D01*
X123063996Y-98030079D01*
X122984978Y-97882245D01*
X122936314Y-97721822D01*
X122919884Y-97555001D01*
X122936314Y-97388180D01*
X122984978Y-97227757D01*
X123063996Y-97079923D01*
X123170342Y-96950342D01*
X123299923Y-96843996D01*
X123447757Y-96764978D01*
X123447760Y-96764977D01*
X123447762Y-96764976D01*
X123608176Y-96716315D01*
X123608177Y-96716315D01*
X123608180Y-96716314D01*
X123733197Y-96704001D01*
X123816805Y-96704001D01*
X123941822Y-96716314D01*
X123941822Y-96716314D01*
G37*
G36*
X139181822Y-96716314D02*
X139181825Y-96716315D01*
X139181826Y-96716315D01*
X139342240Y-96764976D01*
X139342242Y-96764977D01*
X139342245Y-96764978D01*
X139490079Y-96843996D01*
X139619660Y-96950342D01*
X139726006Y-97079923D01*
X139805024Y-97227757D01*
X139853688Y-97388180D01*
X139870118Y-97555001D01*
X139853688Y-97721822D01*
X139805024Y-97882245D01*
X139726006Y-98030079D01*
X139619660Y-98159660D01*
X139490079Y-98266006D01*
X139342245Y-98345024D01*
X139342242Y-98345025D01*
X139342240Y-98345026D01*
X139181826Y-98393687D01*
X139181825Y-98393687D01*
X139181822Y-98393688D01*
X139056805Y-98406001D01*
X138973197Y-98406001D01*
X138848180Y-98393688D01*
X138848177Y-98393687D01*
X138848176Y-98393687D01*
X138687762Y-98345026D01*
X138687760Y-98345025D01*
X138687757Y-98345024D01*
X138539923Y-98266006D01*
X138410342Y-98159660D01*
X138303996Y-98030079D01*
X138224978Y-97882245D01*
X138176314Y-97721822D01*
X138159884Y-97555001D01*
X138176314Y-97388180D01*
X138224978Y-97227757D01*
X138303996Y-97079923D01*
X138410342Y-96950342D01*
X138539923Y-96843996D01*
X138687757Y-96764978D01*
X138687760Y-96764977D01*
X138687762Y-96764976D01*
X138848176Y-96716315D01*
X138848177Y-96716315D01*
X138848180Y-96716314D01*
X138973197Y-96704001D01*
X139056805Y-96704001D01*
X139181822Y-96716314D01*
X139181822Y-96716314D01*
G37*
G36*
X123941822Y-94176314D02*
X123941825Y-94176315D01*
X123941826Y-94176315D01*
X124102240Y-94224976D01*
X124102242Y-94224977D01*
X124102245Y-94224978D01*
X124250079Y-94303996D01*
X124379660Y-94410342D01*
X124486006Y-94539923D01*
X124565024Y-94687757D01*
X124613688Y-94848180D01*
X124630118Y-95015001D01*
X124613688Y-95181822D01*
X124565024Y-95342245D01*
X124486006Y-95490079D01*
X124379660Y-95619660D01*
X124250079Y-95726006D01*
X124102245Y-95805024D01*
X124102242Y-95805025D01*
X124102240Y-95805026D01*
X123941826Y-95853687D01*
X123941825Y-95853687D01*
X123941822Y-95853688D01*
X123816805Y-95866001D01*
X123733197Y-95866001D01*
X123608180Y-95853688D01*
X123608177Y-95853687D01*
X123608176Y-95853687D01*
X123447762Y-95805026D01*
X123447760Y-95805025D01*
X123447757Y-95805024D01*
X123299923Y-95726006D01*
X123170342Y-95619660D01*
X123063996Y-95490079D01*
X122984978Y-95342245D01*
X122936314Y-95181822D01*
X122919884Y-95015001D01*
X122936314Y-94848180D01*
X122984978Y-94687757D01*
X123063996Y-94539923D01*
X123170342Y-94410342D01*
X123299923Y-94303996D01*
X123447757Y-94224978D01*
X123447760Y-94224977D01*
X123447762Y-94224976D01*
X123608176Y-94176315D01*
X123608177Y-94176315D01*
X123608180Y-94176314D01*
X123733197Y-94164001D01*
X123816805Y-94164001D01*
X123941822Y-94176314D01*
X123941822Y-94176314D01*
G37*
G36*
X139181822Y-94176314D02*
X139181825Y-94176315D01*
X139181826Y-94176315D01*
X139342240Y-94224976D01*
X139342242Y-94224977D01*
X139342245Y-94224978D01*
X139490079Y-94303996D01*
X139619660Y-94410342D01*
X139726006Y-94539923D01*
X139805024Y-94687757D01*
X139853688Y-94848180D01*
X139870118Y-95015001D01*
X139853688Y-95181822D01*
X139805024Y-95342245D01*
X139726006Y-95490079D01*
X139619660Y-95619660D01*
X139490079Y-95726006D01*
X139342245Y-95805024D01*
X139342242Y-95805025D01*
X139342240Y-95805026D01*
X139181826Y-95853687D01*
X139181825Y-95853687D01*
X139181822Y-95853688D01*
X139056805Y-95866001D01*
X138973197Y-95866001D01*
X138848180Y-95853688D01*
X138848177Y-95853687D01*
X138848176Y-95853687D01*
X138687762Y-95805026D01*
X138687760Y-95805025D01*
X138687757Y-95805024D01*
X138539923Y-95726006D01*
X138410342Y-95619660D01*
X138303996Y-95490079D01*
X138224978Y-95342245D01*
X138176314Y-95181822D01*
X138159884Y-95015001D01*
X138176314Y-94848180D01*
X138224978Y-94687757D01*
X138303996Y-94539923D01*
X138410342Y-94410342D01*
X138539923Y-94303996D01*
X138687757Y-94224978D01*
X138687760Y-94224977D01*
X138687762Y-94224976D01*
X138848176Y-94176315D01*
X138848177Y-94176315D01*
X138848180Y-94176314D01*
X138973197Y-94164001D01*
X139056805Y-94164001D01*
X139181822Y-94176314D01*
X139181822Y-94176314D01*
G37*
G36*
X123941822Y-91636314D02*
X123941825Y-91636315D01*
X123941826Y-91636315D01*
X124102240Y-91684976D01*
X124102242Y-91684977D01*
X124102245Y-91684978D01*
X124250079Y-91763996D01*
X124379660Y-91870342D01*
X124486006Y-91999923D01*
X124565024Y-92147757D01*
X124613688Y-92308180D01*
X124630118Y-92475001D01*
X124613688Y-92641822D01*
X124565024Y-92802245D01*
X124486006Y-92950079D01*
X124379660Y-93079660D01*
X124250079Y-93186006D01*
X124102245Y-93265024D01*
X124102242Y-93265025D01*
X124102240Y-93265026D01*
X123941826Y-93313687D01*
X123941825Y-93313687D01*
X123941822Y-93313688D01*
X123816805Y-93326001D01*
X123733197Y-93326001D01*
X123608180Y-93313688D01*
X123608177Y-93313687D01*
X123608176Y-93313687D01*
X123447762Y-93265026D01*
X123447760Y-93265025D01*
X123447757Y-93265024D01*
X123299923Y-93186006D01*
X123170342Y-93079660D01*
X123063996Y-92950079D01*
X122984978Y-92802245D01*
X122936314Y-92641822D01*
X122919884Y-92475001D01*
X122936314Y-92308180D01*
X122984978Y-92147757D01*
X123063996Y-91999923D01*
X123170342Y-91870342D01*
X123299923Y-91763996D01*
X123447757Y-91684978D01*
X123447760Y-91684977D01*
X123447762Y-91684976D01*
X123608176Y-91636315D01*
X123608177Y-91636315D01*
X123608180Y-91636314D01*
X123733197Y-91624001D01*
X123816805Y-91624001D01*
X123941822Y-91636314D01*
X123941822Y-91636314D01*
G37*
G36*
X139181822Y-91636314D02*
X139181825Y-91636315D01*
X139181826Y-91636315D01*
X139342240Y-91684976D01*
X139342242Y-91684977D01*
X139342245Y-91684978D01*
X139490079Y-91763996D01*
X139619660Y-91870342D01*
X139726006Y-91999923D01*
X139805024Y-92147757D01*
X139853688Y-92308180D01*
X139870118Y-92475001D01*
X139853688Y-92641822D01*
X139805024Y-92802245D01*
X139726006Y-92950079D01*
X139619660Y-93079660D01*
X139490079Y-93186006D01*
X139342245Y-93265024D01*
X139342242Y-93265025D01*
X139342240Y-93265026D01*
X139181826Y-93313687D01*
X139181825Y-93313687D01*
X139181822Y-93313688D01*
X139056805Y-93326001D01*
X138973197Y-93326001D01*
X138848180Y-93313688D01*
X138848177Y-93313687D01*
X138848176Y-93313687D01*
X138687762Y-93265026D01*
X138687760Y-93265025D01*
X138687757Y-93265024D01*
X138539923Y-93186006D01*
X138410342Y-93079660D01*
X138303996Y-92950079D01*
X138224978Y-92802245D01*
X138176314Y-92641822D01*
X138159884Y-92475001D01*
X138176314Y-92308180D01*
X138224978Y-92147757D01*
X138303996Y-91999923D01*
X138410342Y-91870342D01*
X138539923Y-91763996D01*
X138687757Y-91684978D01*
X138687760Y-91684977D01*
X138687762Y-91684976D01*
X138848176Y-91636315D01*
X138848177Y-91636315D01*
X138848180Y-91636314D01*
X138973197Y-91624001D01*
X139056805Y-91624001D01*
X139181822Y-91636314D01*
X139181822Y-91636314D01*
G37*
G36*
X131659928Y-89251764D02*
X131681011Y-89258160D01*
X131700442Y-89268546D01*
X131717475Y-89282525D01*
X131731454Y-89299558D01*
X131741840Y-89318989D01*
X131748236Y-89340072D01*
X131751000Y-89368140D01*
X131751000Y-90706860D01*
X131748236Y-90734928D01*
X131741840Y-90756011D01*
X131731454Y-90775442D01*
X131717475Y-90792475D01*
X131700442Y-90806454D01*
X131681011Y-90816840D01*
X131659928Y-90823236D01*
X131631860Y-90826000D01*
X131168140Y-90826000D01*
X131140072Y-90823236D01*
X131118989Y-90816840D01*
X131099558Y-90806454D01*
X131082525Y-90792475D01*
X131068546Y-90775442D01*
X131058160Y-90756011D01*
X131051764Y-90734928D01*
X131049000Y-90706860D01*
X131049000Y-89368140D01*
X131051764Y-89340072D01*
X131058160Y-89318989D01*
X131068546Y-89299558D01*
X131082525Y-89282525D01*
X131099558Y-89268546D01*
X131118989Y-89258160D01*
X131140072Y-89251764D01*
X131168140Y-89249000D01*
X131631860Y-89249000D01*
X131659928Y-89251764D01*
X131659928Y-89251764D01*
G37*
G36*
X135469928Y-89251764D02*
X135491011Y-89258160D01*
X135510442Y-89268546D01*
X135527475Y-89282525D01*
X135541454Y-89299558D01*
X135551840Y-89318989D01*
X135558236Y-89340072D01*
X135561000Y-89368140D01*
X135561000Y-90706860D01*
X135558236Y-90734928D01*
X135551840Y-90756011D01*
X135541454Y-90775442D01*
X135527475Y-90792475D01*
X135510442Y-90806454D01*
X135491011Y-90816840D01*
X135469928Y-90823236D01*
X135441860Y-90826000D01*
X134978140Y-90826000D01*
X134950072Y-90823236D01*
X134928989Y-90816840D01*
X134909558Y-90806454D01*
X134892525Y-90792475D01*
X134878546Y-90775442D01*
X134868160Y-90756011D01*
X134861764Y-90734928D01*
X134859000Y-90706860D01*
X134859000Y-89368140D01*
X134861764Y-89340072D01*
X134868160Y-89318989D01*
X134878546Y-89299558D01*
X134892525Y-89282525D01*
X134909558Y-89268546D01*
X134928989Y-89258160D01*
X134950072Y-89251764D01*
X134978140Y-89249000D01*
X135441860Y-89249000D01*
X135469928Y-89251764D01*
X135469928Y-89251764D01*
G37*
G36*
X132929928Y-89251764D02*
X132951011Y-89258160D01*
X132970442Y-89268546D01*
X132987475Y-89282525D01*
X133001454Y-89299558D01*
X133011840Y-89318989D01*
X133018236Y-89340072D01*
X133021000Y-89368140D01*
X133021000Y-90706860D01*
X133018236Y-90734928D01*
X133011840Y-90756011D01*
X133001454Y-90775442D01*
X132987475Y-90792475D01*
X132970442Y-90806454D01*
X132951011Y-90816840D01*
X132929928Y-90823236D01*
X132901860Y-90826000D01*
X132438140Y-90826000D01*
X132410072Y-90823236D01*
X132388989Y-90816840D01*
X132369558Y-90806454D01*
X132352525Y-90792475D01*
X132338546Y-90775442D01*
X132328160Y-90756011D01*
X132321764Y-90734928D01*
X132319000Y-90706860D01*
X132319000Y-89368140D01*
X132321764Y-89340072D01*
X132328160Y-89318989D01*
X132338546Y-89299558D01*
X132352525Y-89282525D01*
X132369558Y-89268546D01*
X132388989Y-89258160D01*
X132410072Y-89251764D01*
X132438140Y-89249000D01*
X132901860Y-89249000D01*
X132929928Y-89251764D01*
X132929928Y-89251764D01*
G37*
G36*
X134199928Y-89251764D02*
X134221011Y-89258160D01*
X134240442Y-89268546D01*
X134257475Y-89282525D01*
X134271454Y-89299558D01*
X134281840Y-89318989D01*
X134288236Y-89340072D01*
X134291000Y-89368140D01*
X134291000Y-90706860D01*
X134288236Y-90734928D01*
X134281840Y-90756011D01*
X134271454Y-90775442D01*
X134257475Y-90792475D01*
X134240442Y-90806454D01*
X134221011Y-90816840D01*
X134199928Y-90823236D01*
X134171860Y-90826000D01*
X133708140Y-90826000D01*
X133680072Y-90823236D01*
X133658989Y-90816840D01*
X133639558Y-90806454D01*
X133622525Y-90792475D01*
X133608546Y-90775442D01*
X133598160Y-90756011D01*
X133591764Y-90734928D01*
X133589000Y-90706860D01*
X133589000Y-89368140D01*
X133591764Y-89340072D01*
X133598160Y-89318989D01*
X133608546Y-89299558D01*
X133622525Y-89282525D01*
X133639558Y-89268546D01*
X133658989Y-89258160D01*
X133680072Y-89251764D01*
X133708140Y-89249000D01*
X134171860Y-89249000D01*
X134199928Y-89251764D01*
X134199928Y-89251764D01*
G37*
G36*
X130389928Y-89251764D02*
X130411011Y-89258160D01*
X130430442Y-89268546D01*
X130447475Y-89282525D01*
X130461454Y-89299558D01*
X130471840Y-89318989D01*
X130478236Y-89340072D01*
X130481000Y-89368140D01*
X130481000Y-90706860D01*
X130478236Y-90734928D01*
X130471840Y-90756011D01*
X130461454Y-90775442D01*
X130447475Y-90792475D01*
X130430442Y-90806454D01*
X130411011Y-90816840D01*
X130389928Y-90823236D01*
X130361860Y-90826000D01*
X129898140Y-90826000D01*
X129870072Y-90823236D01*
X129848989Y-90816840D01*
X129829558Y-90806454D01*
X129812525Y-90792475D01*
X129798546Y-90775442D01*
X129788160Y-90756011D01*
X129781764Y-90734928D01*
X129779000Y-90706860D01*
X129779000Y-89368140D01*
X129781764Y-89340072D01*
X129788160Y-89318989D01*
X129798546Y-89299558D01*
X129812525Y-89282525D01*
X129829558Y-89268546D01*
X129848989Y-89258160D01*
X129870072Y-89251764D01*
X129898140Y-89249000D01*
X130361860Y-89249000D01*
X130389928Y-89251764D01*
X130389928Y-89251764D01*
G37*
G36*
X129119928Y-89251764D02*
X129141011Y-89258160D01*
X129160442Y-89268546D01*
X129177475Y-89282525D01*
X129191454Y-89299558D01*
X129201840Y-89318989D01*
X129208236Y-89340072D01*
X129211000Y-89368140D01*
X129211000Y-90706860D01*
X129208236Y-90734928D01*
X129201840Y-90756011D01*
X129191454Y-90775442D01*
X129177475Y-90792475D01*
X129160442Y-90806454D01*
X129141011Y-90816840D01*
X129119928Y-90823236D01*
X129091860Y-90826000D01*
X128628140Y-90826000D01*
X128600072Y-90823236D01*
X128578989Y-90816840D01*
X128559558Y-90806454D01*
X128542525Y-90792475D01*
X128528546Y-90775442D01*
X128518160Y-90756011D01*
X128511764Y-90734928D01*
X128509000Y-90706860D01*
X128509000Y-89368140D01*
X128511764Y-89340072D01*
X128518160Y-89318989D01*
X128528546Y-89299558D01*
X128542525Y-89282525D01*
X128559558Y-89268546D01*
X128578989Y-89258160D01*
X128600072Y-89251764D01*
X128628140Y-89249000D01*
X129091860Y-89249000D01*
X129119928Y-89251764D01*
X129119928Y-89251764D01*
G37*
G36*
X127849928Y-89251764D02*
X127871011Y-89258160D01*
X127890442Y-89268546D01*
X127907475Y-89282525D01*
X127921454Y-89299558D01*
X127931840Y-89318989D01*
X127938236Y-89340072D01*
X127941000Y-89368140D01*
X127941000Y-90706860D01*
X127938236Y-90734928D01*
X127931840Y-90756011D01*
X127921454Y-90775442D01*
X127907475Y-90792475D01*
X127890442Y-90806454D01*
X127871011Y-90816840D01*
X127849928Y-90823236D01*
X127821860Y-90826000D01*
X127358140Y-90826000D01*
X127330072Y-90823236D01*
X127308989Y-90816840D01*
X127289558Y-90806454D01*
X127272525Y-90792475D01*
X127258546Y-90775442D01*
X127248160Y-90756011D01*
X127241764Y-90734928D01*
X127239000Y-90706860D01*
X127239000Y-89368140D01*
X127241764Y-89340072D01*
X127248160Y-89318989D01*
X127258546Y-89299558D01*
X127272525Y-89282525D01*
X127289558Y-89268546D01*
X127308989Y-89258160D01*
X127330072Y-89251764D01*
X127358140Y-89249000D01*
X127821860Y-89249000D01*
X127849928Y-89251764D01*
X127849928Y-89251764D01*
G37*
G36*
X139181822Y-89096314D02*
X139181825Y-89096315D01*
X139181826Y-89096315D01*
X139342240Y-89144976D01*
X139342242Y-89144977D01*
X139342245Y-89144978D01*
X139490079Y-89223996D01*
X139619660Y-89330342D01*
X139726006Y-89459923D01*
X139805024Y-89607757D01*
X139853688Y-89768180D01*
X139870118Y-89935001D01*
X139853688Y-90101822D01*
X139805024Y-90262245D01*
X139726006Y-90410079D01*
X139619660Y-90539660D01*
X139490079Y-90646006D01*
X139342245Y-90725024D01*
X139342242Y-90725025D01*
X139342240Y-90725026D01*
X139181826Y-90773687D01*
X139181825Y-90773687D01*
X139181822Y-90773688D01*
X139056805Y-90786001D01*
X138973197Y-90786001D01*
X138848180Y-90773688D01*
X138848177Y-90773687D01*
X138848176Y-90773687D01*
X138687762Y-90725026D01*
X138687760Y-90725025D01*
X138687757Y-90725024D01*
X138539923Y-90646006D01*
X138410342Y-90539660D01*
X138303996Y-90410079D01*
X138224978Y-90262245D01*
X138176314Y-90101822D01*
X138159884Y-89935001D01*
X138176314Y-89768180D01*
X138224978Y-89607757D01*
X138303996Y-89459923D01*
X138410342Y-89330342D01*
X138539923Y-89223996D01*
X138687757Y-89144978D01*
X138687760Y-89144977D01*
X138687762Y-89144976D01*
X138848176Y-89096315D01*
X138848177Y-89096315D01*
X138848180Y-89096314D01*
X138973197Y-89084001D01*
X139056805Y-89084001D01*
X139181822Y-89096314D01*
X139181822Y-89096314D01*
G37*
G36*
X123941822Y-89096314D02*
X123941825Y-89096315D01*
X123941826Y-89096315D01*
X124102240Y-89144976D01*
X124102242Y-89144977D01*
X124102245Y-89144978D01*
X124250079Y-89223996D01*
X124379660Y-89330342D01*
X124486006Y-89459923D01*
X124565024Y-89607757D01*
X124613688Y-89768180D01*
X124630118Y-89935001D01*
X124613688Y-90101822D01*
X124565024Y-90262245D01*
X124486006Y-90410079D01*
X124379660Y-90539660D01*
X124250079Y-90646006D01*
X124102245Y-90725024D01*
X124102242Y-90725025D01*
X124102240Y-90725026D01*
X123941826Y-90773687D01*
X123941825Y-90773687D01*
X123941822Y-90773688D01*
X123816805Y-90786001D01*
X123733197Y-90786001D01*
X123608180Y-90773688D01*
X123608177Y-90773687D01*
X123608176Y-90773687D01*
X123447762Y-90725026D01*
X123447760Y-90725025D01*
X123447757Y-90725024D01*
X123299923Y-90646006D01*
X123170342Y-90539660D01*
X123063996Y-90410079D01*
X122984978Y-90262245D01*
X122936314Y-90101822D01*
X122919884Y-89935001D01*
X122936314Y-89768180D01*
X122984978Y-89607757D01*
X123063996Y-89459923D01*
X123170342Y-89330342D01*
X123299923Y-89223996D01*
X123447757Y-89144978D01*
X123447760Y-89144977D01*
X123447762Y-89144976D01*
X123608176Y-89096315D01*
X123608177Y-89096315D01*
X123608180Y-89096314D01*
X123733197Y-89084001D01*
X123816805Y-89084001D01*
X123941822Y-89096314D01*
X123941822Y-89096314D01*
G37*
G36*
X126534928Y-87931764D02*
X126556011Y-87938160D01*
X126575442Y-87948546D01*
X126592475Y-87962525D01*
X126606454Y-87979558D01*
X126616840Y-87998989D01*
X126623236Y-88020072D01*
X126626000Y-88048140D01*
X126626000Y-88511860D01*
X126623236Y-88539928D01*
X126616840Y-88561011D01*
X126606454Y-88580442D01*
X126592475Y-88597475D01*
X126575442Y-88611454D01*
X126556011Y-88621840D01*
X126534928Y-88628236D01*
X126506860Y-88631000D01*
X125168140Y-88631000D01*
X125140072Y-88628236D01*
X125118989Y-88621840D01*
X125099558Y-88611454D01*
X125082525Y-88597475D01*
X125068546Y-88580442D01*
X125058160Y-88561011D01*
X125051764Y-88539928D01*
X125049000Y-88511860D01*
X125049000Y-88048140D01*
X125051764Y-88020072D01*
X125058160Y-87998989D01*
X125068546Y-87979558D01*
X125082525Y-87962525D01*
X125099558Y-87948546D01*
X125118989Y-87938160D01*
X125140072Y-87931764D01*
X125168140Y-87929000D01*
X126506860Y-87929000D01*
X126534928Y-87931764D01*
X126534928Y-87931764D01*
G37*
G36*
X137659928Y-87931764D02*
X137681011Y-87938160D01*
X137700442Y-87948546D01*
X137717475Y-87962525D01*
X137731454Y-87979558D01*
X137741840Y-87998989D01*
X137748236Y-88020072D01*
X137751000Y-88048140D01*
X137751000Y-88511860D01*
X137748236Y-88539928D01*
X137741840Y-88561011D01*
X137731454Y-88580442D01*
X137717475Y-88597475D01*
X137700442Y-88611454D01*
X137681011Y-88621840D01*
X137659928Y-88628236D01*
X137631860Y-88631000D01*
X136293140Y-88631000D01*
X136265072Y-88628236D01*
X136243989Y-88621840D01*
X136224558Y-88611454D01*
X136207525Y-88597475D01*
X136193546Y-88580442D01*
X136183160Y-88561011D01*
X136176764Y-88539928D01*
X136174000Y-88511860D01*
X136174000Y-88048140D01*
X136176764Y-88020072D01*
X136183160Y-87998989D01*
X136193546Y-87979558D01*
X136207525Y-87962525D01*
X136224558Y-87948546D01*
X136243989Y-87938160D01*
X136265072Y-87931764D01*
X136293140Y-87929000D01*
X137631860Y-87929000D01*
X137659928Y-87931764D01*
X137659928Y-87931764D01*
G37*
G36*
X139181822Y-86556314D02*
X139181825Y-86556315D01*
X139181826Y-86556315D01*
X139342240Y-86604976D01*
X139342242Y-86604977D01*
X139342245Y-86604978D01*
X139490079Y-86683996D01*
X139619660Y-86790342D01*
X139726006Y-86919923D01*
X139805024Y-87067757D01*
X139853688Y-87228180D01*
X139870118Y-87395001D01*
X139853688Y-87561822D01*
X139805024Y-87722245D01*
X139726006Y-87870079D01*
X139619660Y-87999660D01*
X139490079Y-88106006D01*
X139342245Y-88185024D01*
X139342242Y-88185025D01*
X139342240Y-88185026D01*
X139181826Y-88233687D01*
X139181825Y-88233687D01*
X139181822Y-88233688D01*
X139056805Y-88246001D01*
X138973197Y-88246001D01*
X138848180Y-88233688D01*
X138848177Y-88233687D01*
X138848176Y-88233687D01*
X138687762Y-88185026D01*
X138687760Y-88185025D01*
X138687757Y-88185024D01*
X138539923Y-88106006D01*
X138410342Y-87999660D01*
X138303996Y-87870079D01*
X138224978Y-87722245D01*
X138176314Y-87561822D01*
X138159884Y-87395001D01*
X138176314Y-87228180D01*
X138224978Y-87067757D01*
X138303996Y-86919923D01*
X138410342Y-86790342D01*
X138539923Y-86683996D01*
X138687757Y-86604978D01*
X138687760Y-86604977D01*
X138687762Y-86604976D01*
X138848176Y-86556315D01*
X138848177Y-86556315D01*
X138848180Y-86556314D01*
X138973197Y-86544001D01*
X139056805Y-86544001D01*
X139181822Y-86556314D01*
X139181822Y-86556314D01*
G37*
G36*
X123941822Y-86556314D02*
X123941825Y-86556315D01*
X123941826Y-86556315D01*
X124102240Y-86604976D01*
X124102242Y-86604977D01*
X124102245Y-86604978D01*
X124250079Y-86683996D01*
X124379660Y-86790342D01*
X124486006Y-86919923D01*
X124565024Y-87067757D01*
X124613688Y-87228180D01*
X124630118Y-87395001D01*
X124613688Y-87561822D01*
X124565024Y-87722245D01*
X124486006Y-87870079D01*
X124379660Y-87999660D01*
X124250079Y-88106006D01*
X124102245Y-88185024D01*
X124102242Y-88185025D01*
X124102240Y-88185026D01*
X123941826Y-88233687D01*
X123941825Y-88233687D01*
X123941822Y-88233688D01*
X123816805Y-88246001D01*
X123733197Y-88246001D01*
X123608180Y-88233688D01*
X123608177Y-88233687D01*
X123608176Y-88233687D01*
X123447762Y-88185026D01*
X123447760Y-88185025D01*
X123447757Y-88185024D01*
X123299923Y-88106006D01*
X123170342Y-87999660D01*
X123063996Y-87870079D01*
X122984978Y-87722245D01*
X122936314Y-87561822D01*
X122919884Y-87395001D01*
X122936314Y-87228180D01*
X122984978Y-87067757D01*
X123063996Y-86919923D01*
X123170342Y-86790342D01*
X123299923Y-86683996D01*
X123447757Y-86604978D01*
X123447760Y-86604977D01*
X123447762Y-86604976D01*
X123608176Y-86556315D01*
X123608177Y-86556315D01*
X123608180Y-86556314D01*
X123733197Y-86544001D01*
X123816805Y-86544001D01*
X123941822Y-86556314D01*
X123941822Y-86556314D01*
G37*
G36*
X137659928Y-86661764D02*
X137681011Y-86668160D01*
X137700442Y-86678546D01*
X137717475Y-86692525D01*
X137731454Y-86709558D01*
X137741840Y-86728989D01*
X137748236Y-86750072D01*
X137751000Y-86778140D01*
X137751000Y-87241860D01*
X137748236Y-87269928D01*
X137741840Y-87291011D01*
X137731454Y-87310442D01*
X137717475Y-87327475D01*
X137700442Y-87341454D01*
X137681011Y-87351840D01*
X137659928Y-87358236D01*
X137631860Y-87361000D01*
X136293140Y-87361000D01*
X136265072Y-87358236D01*
X136243989Y-87351840D01*
X136224558Y-87341454D01*
X136207525Y-87327475D01*
X136193546Y-87310442D01*
X136183160Y-87291011D01*
X136176764Y-87269928D01*
X136174000Y-87241860D01*
X136174000Y-86778140D01*
X136176764Y-86750072D01*
X136183160Y-86728989D01*
X136193546Y-86709558D01*
X136207525Y-86692525D01*
X136224558Y-86678546D01*
X136243989Y-86668160D01*
X136265072Y-86661764D01*
X136293140Y-86659000D01*
X137631860Y-86659000D01*
X137659928Y-86661764D01*
X137659928Y-86661764D01*
G37*
G36*
X126534928Y-86661764D02*
X126556011Y-86668160D01*
X126575442Y-86678546D01*
X126592475Y-86692525D01*
X126606454Y-86709558D01*
X126616840Y-86728989D01*
X126623236Y-86750072D01*
X126626000Y-86778140D01*
X126626000Y-87241860D01*
X126623236Y-87269928D01*
X126616840Y-87291011D01*
X126606454Y-87310442D01*
X126592475Y-87327475D01*
X126575442Y-87341454D01*
X126556011Y-87351840D01*
X126534928Y-87358236D01*
X126506860Y-87361000D01*
X125168140Y-87361000D01*
X125140072Y-87358236D01*
X125118989Y-87351840D01*
X125099558Y-87341454D01*
X125082525Y-87327475D01*
X125068546Y-87310442D01*
X125058160Y-87291011D01*
X125051764Y-87269928D01*
X125049000Y-87241860D01*
X125049000Y-86778140D01*
X125051764Y-86750072D01*
X125058160Y-86728989D01*
X125068546Y-86709558D01*
X125082525Y-86692525D01*
X125099558Y-86678546D01*
X125118989Y-86668160D01*
X125140072Y-86661764D01*
X125168140Y-86659000D01*
X126506860Y-86659000D01*
X126534928Y-86661764D01*
X126534928Y-86661764D01*
G37*
G36*
X126534928Y-85391764D02*
X126556011Y-85398160D01*
X126575442Y-85408546D01*
X126592475Y-85422525D01*
X126606454Y-85439558D01*
X126616840Y-85458989D01*
X126623236Y-85480072D01*
X126626000Y-85508140D01*
X126626000Y-85971860D01*
X126623236Y-85999928D01*
X126616840Y-86021011D01*
X126606454Y-86040442D01*
X126592475Y-86057475D01*
X126575442Y-86071454D01*
X126556011Y-86081840D01*
X126534928Y-86088236D01*
X126506860Y-86091000D01*
X125168140Y-86091000D01*
X125140072Y-86088236D01*
X125118989Y-86081840D01*
X125099558Y-86071454D01*
X125082525Y-86057475D01*
X125068546Y-86040442D01*
X125058160Y-86021011D01*
X125051764Y-85999928D01*
X125049000Y-85971860D01*
X125049000Y-85508140D01*
X125051764Y-85480072D01*
X125058160Y-85458989D01*
X125068546Y-85439558D01*
X125082525Y-85422525D01*
X125099558Y-85408546D01*
X125118989Y-85398160D01*
X125140072Y-85391764D01*
X125168140Y-85389000D01*
X126506860Y-85389000D01*
X126534928Y-85391764D01*
X126534928Y-85391764D01*
G37*
G36*
X137659928Y-85391764D02*
X137681011Y-85398160D01*
X137700442Y-85408546D01*
X137717475Y-85422525D01*
X137731454Y-85439558D01*
X137741840Y-85458989D01*
X137748236Y-85480072D01*
X137751000Y-85508140D01*
X137751000Y-85971860D01*
X137748236Y-85999928D01*
X137741840Y-86021011D01*
X137731454Y-86040442D01*
X137717475Y-86057475D01*
X137700442Y-86071454D01*
X137681011Y-86081840D01*
X137659928Y-86088236D01*
X137631860Y-86091000D01*
X136293140Y-86091000D01*
X136265072Y-86088236D01*
X136243989Y-86081840D01*
X136224558Y-86071454D01*
X136207525Y-86057475D01*
X136193546Y-86040442D01*
X136183160Y-86021011D01*
X136176764Y-85999928D01*
X136174000Y-85971860D01*
X136174000Y-85508140D01*
X136176764Y-85480072D01*
X136183160Y-85458989D01*
X136193546Y-85439558D01*
X136207525Y-85422525D01*
X136224558Y-85408546D01*
X136243989Y-85398160D01*
X136265072Y-85391764D01*
X136293140Y-85389000D01*
X137631860Y-85389000D01*
X137659928Y-85391764D01*
X137659928Y-85391764D01*
G37*
G36*
X139181822Y-84016314D02*
X139181825Y-84016315D01*
X139181826Y-84016315D01*
X139342240Y-84064976D01*
X139342242Y-84064977D01*
X139342245Y-84064978D01*
X139490079Y-84143996D01*
X139619660Y-84250342D01*
X139726006Y-84379923D01*
X139805024Y-84527757D01*
X139853688Y-84688180D01*
X139870118Y-84855001D01*
X139853688Y-85021822D01*
X139805024Y-85182245D01*
X139726006Y-85330079D01*
X139619660Y-85459660D01*
X139490079Y-85566006D01*
X139342245Y-85645024D01*
X139342242Y-85645025D01*
X139342240Y-85645026D01*
X139181826Y-85693687D01*
X139181825Y-85693687D01*
X139181822Y-85693688D01*
X139056805Y-85706001D01*
X138973197Y-85706001D01*
X138848180Y-85693688D01*
X138848177Y-85693687D01*
X138848176Y-85693687D01*
X138687762Y-85645026D01*
X138687760Y-85645025D01*
X138687757Y-85645024D01*
X138539923Y-85566006D01*
X138410342Y-85459660D01*
X138303996Y-85330079D01*
X138224978Y-85182245D01*
X138176314Y-85021822D01*
X138159884Y-84855001D01*
X138176314Y-84688180D01*
X138224978Y-84527757D01*
X138303996Y-84379923D01*
X138410342Y-84250342D01*
X138539923Y-84143996D01*
X138687757Y-84064978D01*
X138687760Y-84064977D01*
X138687762Y-84064976D01*
X138848176Y-84016315D01*
X138848177Y-84016315D01*
X138848180Y-84016314D01*
X138973197Y-84004001D01*
X139056805Y-84004001D01*
X139181822Y-84016314D01*
X139181822Y-84016314D01*
G37*
G36*
X123941822Y-84016314D02*
X123941825Y-84016315D01*
X123941826Y-84016315D01*
X124102240Y-84064976D01*
X124102242Y-84064977D01*
X124102245Y-84064978D01*
X124250079Y-84143996D01*
X124379660Y-84250342D01*
X124486006Y-84379923D01*
X124565024Y-84527757D01*
X124613688Y-84688180D01*
X124630118Y-84855001D01*
X124613688Y-85021822D01*
X124565024Y-85182245D01*
X124486006Y-85330079D01*
X124379660Y-85459660D01*
X124250079Y-85566006D01*
X124102245Y-85645024D01*
X124102242Y-85645025D01*
X124102240Y-85645026D01*
X123941826Y-85693687D01*
X123941825Y-85693687D01*
X123941822Y-85693688D01*
X123816805Y-85706001D01*
X123733197Y-85706001D01*
X123608180Y-85693688D01*
X123608177Y-85693687D01*
X123608176Y-85693687D01*
X123447762Y-85645026D01*
X123447760Y-85645025D01*
X123447757Y-85645024D01*
X123299923Y-85566006D01*
X123170342Y-85459660D01*
X123063996Y-85330079D01*
X122984978Y-85182245D01*
X122936314Y-85021822D01*
X122919884Y-84855001D01*
X122936314Y-84688180D01*
X122984978Y-84527757D01*
X123063996Y-84379923D01*
X123170342Y-84250342D01*
X123299923Y-84143996D01*
X123447757Y-84064978D01*
X123447760Y-84064977D01*
X123447762Y-84064976D01*
X123608176Y-84016315D01*
X123608177Y-84016315D01*
X123608180Y-84016314D01*
X123733197Y-84004001D01*
X123816805Y-84004001D01*
X123941822Y-84016314D01*
X123941822Y-84016314D01*
G37*
G36*
X126534928Y-84121764D02*
X126556011Y-84128160D01*
X126575442Y-84138546D01*
X126592475Y-84152525D01*
X126606454Y-84169558D01*
X126616840Y-84188989D01*
X126623236Y-84210072D01*
X126626000Y-84238140D01*
X126626000Y-84701860D01*
X126623236Y-84729928D01*
X126616840Y-84751011D01*
X126606454Y-84770442D01*
X126592475Y-84787475D01*
X126575442Y-84801454D01*
X126556011Y-84811840D01*
X126534928Y-84818236D01*
X126506860Y-84821000D01*
X125168140Y-84821000D01*
X125140072Y-84818236D01*
X125118989Y-84811840D01*
X125099558Y-84801454D01*
X125082525Y-84787475D01*
X125068546Y-84770442D01*
X125058160Y-84751011D01*
X125051764Y-84729928D01*
X125049000Y-84701860D01*
X125049000Y-84238140D01*
X125051764Y-84210072D01*
X125058160Y-84188989D01*
X125068546Y-84169558D01*
X125082525Y-84152525D01*
X125099558Y-84138546D01*
X125118989Y-84128160D01*
X125140072Y-84121764D01*
X125168140Y-84119000D01*
X126506860Y-84119000D01*
X126534928Y-84121764D01*
X126534928Y-84121764D01*
G37*
G36*
X137659928Y-84121764D02*
X137681011Y-84128160D01*
X137700442Y-84138546D01*
X137717475Y-84152525D01*
X137731454Y-84169558D01*
X137741840Y-84188989D01*
X137748236Y-84210072D01*
X137751000Y-84238140D01*
X137751000Y-84701860D01*
X137748236Y-84729928D01*
X137741840Y-84751011D01*
X137731454Y-84770442D01*
X137717475Y-84787475D01*
X137700442Y-84801454D01*
X137681011Y-84811840D01*
X137659928Y-84818236D01*
X137631860Y-84821000D01*
X136293140Y-84821000D01*
X136265072Y-84818236D01*
X136243989Y-84811840D01*
X136224558Y-84801454D01*
X136207525Y-84787475D01*
X136193546Y-84770442D01*
X136183160Y-84751011D01*
X136176764Y-84729928D01*
X136174000Y-84701860D01*
X136174000Y-84238140D01*
X136176764Y-84210072D01*
X136183160Y-84188989D01*
X136193546Y-84169558D01*
X136207525Y-84152525D01*
X136224558Y-84138546D01*
X136243989Y-84128160D01*
X136265072Y-84121764D01*
X136293140Y-84119000D01*
X137631860Y-84119000D01*
X137659928Y-84121764D01*
X137659928Y-84121764D01*
G37*
G36*
X126534928Y-82851764D02*
X126556011Y-82858160D01*
X126575442Y-82868546D01*
X126592475Y-82882525D01*
X126606454Y-82899558D01*
X126616840Y-82918989D01*
X126623236Y-82940072D01*
X126626000Y-82968140D01*
X126626000Y-83431860D01*
X126623236Y-83459928D01*
X126616840Y-83481011D01*
X126606454Y-83500442D01*
X126592475Y-83517475D01*
X126575442Y-83531454D01*
X126556011Y-83541840D01*
X126534928Y-83548236D01*
X126506860Y-83551000D01*
X125168140Y-83551000D01*
X125140072Y-83548236D01*
X125118989Y-83541840D01*
X125099558Y-83531454D01*
X125082525Y-83517475D01*
X125068546Y-83500442D01*
X125058160Y-83481011D01*
X125051764Y-83459928D01*
X125049000Y-83431860D01*
X125049000Y-82968140D01*
X125051764Y-82940072D01*
X125058160Y-82918989D01*
X125068546Y-82899558D01*
X125082525Y-82882525D01*
X125099558Y-82868546D01*
X125118989Y-82858160D01*
X125140072Y-82851764D01*
X125168140Y-82849000D01*
X126506860Y-82849000D01*
X126534928Y-82851764D01*
X126534928Y-82851764D01*
G37*
G36*
X137659928Y-82851764D02*
X137681011Y-82858160D01*
X137700442Y-82868546D01*
X137717475Y-82882525D01*
X137731454Y-82899558D01*
X137741840Y-82918989D01*
X137748236Y-82940072D01*
X137751000Y-82968140D01*
X137751000Y-83431860D01*
X137748236Y-83459928D01*
X137741840Y-83481011D01*
X137731454Y-83500442D01*
X137717475Y-83517475D01*
X137700442Y-83531454D01*
X137681011Y-83541840D01*
X137659928Y-83548236D01*
X137631860Y-83551000D01*
X136293140Y-83551000D01*
X136265072Y-83548236D01*
X136243989Y-83541840D01*
X136224558Y-83531454D01*
X136207525Y-83517475D01*
X136193546Y-83500442D01*
X136183160Y-83481011D01*
X136176764Y-83459928D01*
X136174000Y-83431860D01*
X136174000Y-82968140D01*
X136176764Y-82940072D01*
X136183160Y-82918989D01*
X136193546Y-82899558D01*
X136207525Y-82882525D01*
X136224558Y-82868546D01*
X136243989Y-82858160D01*
X136265072Y-82851764D01*
X136293140Y-82849000D01*
X137631860Y-82849000D01*
X137659928Y-82851764D01*
X137659928Y-82851764D01*
G37*
G36*
X139181822Y-81476314D02*
X139181825Y-81476315D01*
X139181826Y-81476315D01*
X139342240Y-81524976D01*
X139342242Y-81524977D01*
X139342245Y-81524978D01*
X139490079Y-81603996D01*
X139619660Y-81710342D01*
X139726006Y-81839923D01*
X139805024Y-81987757D01*
X139853688Y-82148180D01*
X139870118Y-82315001D01*
X139853688Y-82481822D01*
X139805024Y-82642245D01*
X139726006Y-82790079D01*
X139619660Y-82919660D01*
X139490079Y-83026006D01*
X139342245Y-83105024D01*
X139342242Y-83105025D01*
X139342240Y-83105026D01*
X139181826Y-83153687D01*
X139181825Y-83153687D01*
X139181822Y-83153688D01*
X139056805Y-83166001D01*
X138973197Y-83166001D01*
X138848180Y-83153688D01*
X138848177Y-83153687D01*
X138848176Y-83153687D01*
X138687762Y-83105026D01*
X138687760Y-83105025D01*
X138687757Y-83105024D01*
X138539923Y-83026006D01*
X138410342Y-82919660D01*
X138303996Y-82790079D01*
X138224978Y-82642245D01*
X138176314Y-82481822D01*
X138159884Y-82315001D01*
X138176314Y-82148180D01*
X138224978Y-81987757D01*
X138303996Y-81839923D01*
X138410342Y-81710342D01*
X138539923Y-81603996D01*
X138687757Y-81524978D01*
X138687760Y-81524977D01*
X138687762Y-81524976D01*
X138848176Y-81476315D01*
X138848177Y-81476315D01*
X138848180Y-81476314D01*
X138973197Y-81464001D01*
X139056805Y-81464001D01*
X139181822Y-81476314D01*
X139181822Y-81476314D01*
G37*
G36*
X123941822Y-81476314D02*
X123941825Y-81476315D01*
X123941826Y-81476315D01*
X124102240Y-81524976D01*
X124102242Y-81524977D01*
X124102245Y-81524978D01*
X124250079Y-81603996D01*
X124379660Y-81710342D01*
X124486006Y-81839923D01*
X124565024Y-81987757D01*
X124613688Y-82148180D01*
X124630118Y-82315001D01*
X124613688Y-82481822D01*
X124565024Y-82642245D01*
X124486006Y-82790079D01*
X124379660Y-82919660D01*
X124250079Y-83026006D01*
X124102245Y-83105024D01*
X124102242Y-83105025D01*
X124102240Y-83105026D01*
X123941826Y-83153687D01*
X123941825Y-83153687D01*
X123941822Y-83153688D01*
X123816805Y-83166001D01*
X123733197Y-83166001D01*
X123608180Y-83153688D01*
X123608177Y-83153687D01*
X123608176Y-83153687D01*
X123447762Y-83105026D01*
X123447760Y-83105025D01*
X123447757Y-83105024D01*
X123299923Y-83026006D01*
X123170342Y-82919660D01*
X123063996Y-82790079D01*
X122984978Y-82642245D01*
X122936314Y-82481822D01*
X122919884Y-82315001D01*
X122936314Y-82148180D01*
X122984978Y-81987757D01*
X123063996Y-81839923D01*
X123170342Y-81710342D01*
X123299923Y-81603996D01*
X123447757Y-81524978D01*
X123447760Y-81524977D01*
X123447762Y-81524976D01*
X123608176Y-81476315D01*
X123608177Y-81476315D01*
X123608180Y-81476314D01*
X123733197Y-81464001D01*
X123816805Y-81464001D01*
X123941822Y-81476314D01*
X123941822Y-81476314D01*
G37*
G36*
X137659928Y-81581764D02*
X137681011Y-81588160D01*
X137700442Y-81598546D01*
X137717475Y-81612525D01*
X137731454Y-81629558D01*
X137741840Y-81648989D01*
X137748236Y-81670072D01*
X137751000Y-81698140D01*
X137751000Y-82161860D01*
X137748236Y-82189928D01*
X137741840Y-82211011D01*
X137731454Y-82230442D01*
X137717475Y-82247475D01*
X137700442Y-82261454D01*
X137681011Y-82271840D01*
X137659928Y-82278236D01*
X137631860Y-82281000D01*
X136293140Y-82281000D01*
X136265072Y-82278236D01*
X136243989Y-82271840D01*
X136224558Y-82261454D01*
X136207525Y-82247475D01*
X136193546Y-82230442D01*
X136183160Y-82211011D01*
X136176764Y-82189928D01*
X136174000Y-82161860D01*
X136174000Y-81698140D01*
X136176764Y-81670072D01*
X136183160Y-81648989D01*
X136193546Y-81629558D01*
X136207525Y-81612525D01*
X136224558Y-81598546D01*
X136243989Y-81588160D01*
X136265072Y-81581764D01*
X136293140Y-81579000D01*
X137631860Y-81579000D01*
X137659928Y-81581764D01*
X137659928Y-81581764D01*
G37*
G36*
X126534928Y-81581764D02*
X126556011Y-81588160D01*
X126575442Y-81598546D01*
X126592475Y-81612525D01*
X126606454Y-81629558D01*
X126616840Y-81648989D01*
X126623236Y-81670072D01*
X126626000Y-81698140D01*
X126626000Y-82161860D01*
X126623236Y-82189928D01*
X126616840Y-82211011D01*
X126606454Y-82230442D01*
X126592475Y-82247475D01*
X126575442Y-82261454D01*
X126556011Y-82271840D01*
X126534928Y-82278236D01*
X126506860Y-82281000D01*
X125168140Y-82281000D01*
X125140072Y-82278236D01*
X125118989Y-82271840D01*
X125099558Y-82261454D01*
X125082525Y-82247475D01*
X125068546Y-82230442D01*
X125058160Y-82211011D01*
X125051764Y-82189928D01*
X125049000Y-82161860D01*
X125049000Y-81698140D01*
X125051764Y-81670072D01*
X125058160Y-81648989D01*
X125068546Y-81629558D01*
X125082525Y-81612525D01*
X125099558Y-81598546D01*
X125118989Y-81588160D01*
X125140072Y-81581764D01*
X125168140Y-81579000D01*
X126506860Y-81579000D01*
X126534928Y-81581764D01*
X126534928Y-81581764D01*
G37*
G36*
X137659928Y-80311764D02*
X137681011Y-80318160D01*
X137700442Y-80328546D01*
X137717475Y-80342525D01*
X137731454Y-80359558D01*
X137741840Y-80378989D01*
X137748236Y-80400072D01*
X137751000Y-80428140D01*
X137751000Y-80891860D01*
X137748236Y-80919928D01*
X137741840Y-80941011D01*
X137731454Y-80960442D01*
X137717475Y-80977475D01*
X137700442Y-80991454D01*
X137681011Y-81001840D01*
X137659928Y-81008236D01*
X137631860Y-81011000D01*
X136293140Y-81011000D01*
X136265072Y-81008236D01*
X136243989Y-81001840D01*
X136224558Y-80991454D01*
X136207525Y-80977475D01*
X136193546Y-80960442D01*
X136183160Y-80941011D01*
X136176764Y-80919928D01*
X136174000Y-80891860D01*
X136174000Y-80428140D01*
X136176764Y-80400072D01*
X136183160Y-80378989D01*
X136193546Y-80359558D01*
X136207525Y-80342525D01*
X136224558Y-80328546D01*
X136243989Y-80318160D01*
X136265072Y-80311764D01*
X136293140Y-80309000D01*
X137631860Y-80309000D01*
X137659928Y-80311764D01*
X137659928Y-80311764D01*
G37*
G36*
X126534928Y-80311764D02*
X126556011Y-80318160D01*
X126575442Y-80328546D01*
X126592475Y-80342525D01*
X126606454Y-80359558D01*
X126616840Y-80378989D01*
X126623236Y-80400072D01*
X126626000Y-80428140D01*
X126626000Y-80891860D01*
X126623236Y-80919928D01*
X126616840Y-80941011D01*
X126606454Y-80960442D01*
X126592475Y-80977475D01*
X126575442Y-80991454D01*
X126556011Y-81001840D01*
X126534928Y-81008236D01*
X126506860Y-81011000D01*
X125168140Y-81011000D01*
X125140072Y-81008236D01*
X125118989Y-81001840D01*
X125099558Y-80991454D01*
X125082525Y-80977475D01*
X125068546Y-80960442D01*
X125058160Y-80941011D01*
X125051764Y-80919928D01*
X125049000Y-80891860D01*
X125049000Y-80428140D01*
X125051764Y-80400072D01*
X125058160Y-80378989D01*
X125068546Y-80359558D01*
X125082525Y-80342525D01*
X125099558Y-80328546D01*
X125118989Y-80318160D01*
X125140072Y-80311764D01*
X125168140Y-80309000D01*
X126506860Y-80309000D01*
X126534928Y-80311764D01*
X126534928Y-80311764D01*
G37*
G36*
X123941822Y-78936314D02*
X123941825Y-78936315D01*
X123941826Y-78936315D01*
X124102240Y-78984976D01*
X124102242Y-78984977D01*
X124102245Y-78984978D01*
X124250079Y-79063996D01*
X124379660Y-79170342D01*
X124486006Y-79299923D01*
X124565024Y-79447757D01*
X124613688Y-79608180D01*
X124630118Y-79775001D01*
X124613688Y-79941822D01*
X124565024Y-80102245D01*
X124486006Y-80250079D01*
X124379660Y-80379660D01*
X124250079Y-80486006D01*
X124102245Y-80565024D01*
X124102242Y-80565025D01*
X124102240Y-80565026D01*
X123941826Y-80613687D01*
X123941825Y-80613687D01*
X123941822Y-80613688D01*
X123816805Y-80626001D01*
X123733197Y-80626001D01*
X123608180Y-80613688D01*
X123608177Y-80613687D01*
X123608176Y-80613687D01*
X123447762Y-80565026D01*
X123447760Y-80565025D01*
X123447757Y-80565024D01*
X123299923Y-80486006D01*
X123170342Y-80379660D01*
X123063996Y-80250079D01*
X122984978Y-80102245D01*
X122936314Y-79941822D01*
X122919884Y-79775001D01*
X122936314Y-79608180D01*
X122984978Y-79447757D01*
X123063996Y-79299923D01*
X123170342Y-79170342D01*
X123299923Y-79063996D01*
X123447757Y-78984978D01*
X123447760Y-78984977D01*
X123447762Y-78984976D01*
X123608176Y-78936315D01*
X123608177Y-78936315D01*
X123608180Y-78936314D01*
X123733197Y-78924001D01*
X123816805Y-78924001D01*
X123941822Y-78936314D01*
X123941822Y-78936314D01*
G37*
G36*
X139181822Y-78936314D02*
X139181825Y-78936315D01*
X139181826Y-78936315D01*
X139342240Y-78984976D01*
X139342242Y-78984977D01*
X139342245Y-78984978D01*
X139490079Y-79063996D01*
X139619660Y-79170342D01*
X139726006Y-79299923D01*
X139805024Y-79447757D01*
X139853688Y-79608180D01*
X139870118Y-79775001D01*
X139853688Y-79941822D01*
X139805024Y-80102245D01*
X139726006Y-80250079D01*
X139619660Y-80379660D01*
X139490079Y-80486006D01*
X139342245Y-80565024D01*
X139342242Y-80565025D01*
X139342240Y-80565026D01*
X139181826Y-80613687D01*
X139181825Y-80613687D01*
X139181822Y-80613688D01*
X139056805Y-80626001D01*
X138973197Y-80626001D01*
X138848180Y-80613688D01*
X138848177Y-80613687D01*
X138848176Y-80613687D01*
X138687762Y-80565026D01*
X138687760Y-80565025D01*
X138687757Y-80565024D01*
X138539923Y-80486006D01*
X138410342Y-80379660D01*
X138303996Y-80250079D01*
X138224978Y-80102245D01*
X138176314Y-79941822D01*
X138159884Y-79775001D01*
X138176314Y-79608180D01*
X138224978Y-79447757D01*
X138303996Y-79299923D01*
X138410342Y-79170342D01*
X138539923Y-79063996D01*
X138687757Y-78984978D01*
X138687760Y-78984977D01*
X138687762Y-78984976D01*
X138848176Y-78936315D01*
X138848177Y-78936315D01*
X138848180Y-78936314D01*
X138973197Y-78924001D01*
X139056805Y-78924001D01*
X139181822Y-78936314D01*
X139181822Y-78936314D01*
G37*
G36*
X137659928Y-79041764D02*
X137681011Y-79048160D01*
X137700442Y-79058546D01*
X137717475Y-79072525D01*
X137731454Y-79089558D01*
X137741840Y-79108989D01*
X137748236Y-79130072D01*
X137751000Y-79158140D01*
X137751000Y-79621860D01*
X137748236Y-79649928D01*
X137741840Y-79671011D01*
X137731454Y-79690442D01*
X137717475Y-79707475D01*
X137700442Y-79721454D01*
X137681011Y-79731840D01*
X137659928Y-79738236D01*
X137631860Y-79741000D01*
X136293140Y-79741000D01*
X136265072Y-79738236D01*
X136243989Y-79731840D01*
X136224558Y-79721454D01*
X136207525Y-79707475D01*
X136193546Y-79690442D01*
X136183160Y-79671011D01*
X136176764Y-79649928D01*
X136174000Y-79621860D01*
X136174000Y-79158140D01*
X136176764Y-79130072D01*
X136183160Y-79108989D01*
X136193546Y-79089558D01*
X136207525Y-79072525D01*
X136224558Y-79058546D01*
X136243989Y-79048160D01*
X136265072Y-79041764D01*
X136293140Y-79039000D01*
X137631860Y-79039000D01*
X137659928Y-79041764D01*
X137659928Y-79041764D01*
G37*
G36*
X126534928Y-79041764D02*
X126556011Y-79048160D01*
X126575442Y-79058546D01*
X126592475Y-79072525D01*
X126606454Y-79089558D01*
X126616840Y-79108989D01*
X126623236Y-79130072D01*
X126626000Y-79158140D01*
X126626000Y-79621860D01*
X126623236Y-79649928D01*
X126616840Y-79671011D01*
X126606454Y-79690442D01*
X126592475Y-79707475D01*
X126575442Y-79721454D01*
X126556011Y-79731840D01*
X126534928Y-79738236D01*
X126506860Y-79741000D01*
X125168140Y-79741000D01*
X125140072Y-79738236D01*
X125118989Y-79731840D01*
X125099558Y-79721454D01*
X125082525Y-79707475D01*
X125068546Y-79690442D01*
X125058160Y-79671011D01*
X125051764Y-79649928D01*
X125049000Y-79621860D01*
X125049000Y-79158140D01*
X125051764Y-79130072D01*
X125058160Y-79108989D01*
X125068546Y-79089558D01*
X125082525Y-79072525D01*
X125099558Y-79058546D01*
X125118989Y-79048160D01*
X125140072Y-79041764D01*
X125168140Y-79039000D01*
X126506860Y-79039000D01*
X126534928Y-79041764D01*
X126534928Y-79041764D01*
G37*
G36*
X126534928Y-77771764D02*
X126556011Y-77778160D01*
X126575442Y-77788546D01*
X126592475Y-77802525D01*
X126606454Y-77819558D01*
X126616840Y-77838989D01*
X126623236Y-77860072D01*
X126626000Y-77888140D01*
X126626000Y-78351860D01*
X126623236Y-78379928D01*
X126616840Y-78401011D01*
X126606454Y-78420442D01*
X126592475Y-78437475D01*
X126575442Y-78451454D01*
X126556011Y-78461840D01*
X126534928Y-78468236D01*
X126506860Y-78471000D01*
X125168140Y-78471000D01*
X125140072Y-78468236D01*
X125118989Y-78461840D01*
X125099558Y-78451454D01*
X125082525Y-78437475D01*
X125068546Y-78420442D01*
X125058160Y-78401011D01*
X125051764Y-78379928D01*
X125049000Y-78351860D01*
X125049000Y-77888140D01*
X125051764Y-77860072D01*
X125058160Y-77838989D01*
X125068546Y-77819558D01*
X125082525Y-77802525D01*
X125099558Y-77788546D01*
X125118989Y-77778160D01*
X125140072Y-77771764D01*
X125168140Y-77769000D01*
X126506860Y-77769000D01*
X126534928Y-77771764D01*
X126534928Y-77771764D01*
G37*
G36*
X137659928Y-77771764D02*
X137681011Y-77778160D01*
X137700442Y-77788546D01*
X137717475Y-77802525D01*
X137731454Y-77819558D01*
X137741840Y-77838989D01*
X137748236Y-77860072D01*
X137751000Y-77888140D01*
X137751000Y-78351860D01*
X137748236Y-78379928D01*
X137741840Y-78401011D01*
X137731454Y-78420442D01*
X137717475Y-78437475D01*
X137700442Y-78451454D01*
X137681011Y-78461840D01*
X137659928Y-78468236D01*
X137631860Y-78471000D01*
X136293140Y-78471000D01*
X136265072Y-78468236D01*
X136243989Y-78461840D01*
X136224558Y-78451454D01*
X136207525Y-78437475D01*
X136193546Y-78420442D01*
X136183160Y-78401011D01*
X136176764Y-78379928D01*
X136174000Y-78351860D01*
X136174000Y-77888140D01*
X136176764Y-77860072D01*
X136183160Y-77838989D01*
X136193546Y-77819558D01*
X136207525Y-77802525D01*
X136224558Y-77788546D01*
X136243989Y-77778160D01*
X136265072Y-77771764D01*
X136293140Y-77769000D01*
X137631860Y-77769000D01*
X137659928Y-77771764D01*
X137659928Y-77771764D01*
G37*
G36*
X139181822Y-76396314D02*
X139181825Y-76396315D01*
X139181826Y-76396315D01*
X139342240Y-76444976D01*
X139342242Y-76444977D01*
X139342245Y-76444978D01*
X139490079Y-76523996D01*
X139619660Y-76630342D01*
X139726006Y-76759923D01*
X139805024Y-76907757D01*
X139805025Y-76907760D01*
X139805026Y-76907762D01*
X139845947Y-77042661D01*
X139853688Y-77068180D01*
X139870118Y-77235001D01*
X139853688Y-77401822D01*
X139805024Y-77562245D01*
X139726006Y-77710079D01*
X139619660Y-77839660D01*
X139490079Y-77946006D01*
X139342245Y-78025024D01*
X139342242Y-78025025D01*
X139342240Y-78025026D01*
X139181826Y-78073687D01*
X139181825Y-78073687D01*
X139181822Y-78073688D01*
X139056805Y-78086001D01*
X138973197Y-78086001D01*
X138848180Y-78073688D01*
X138848177Y-78073687D01*
X138848176Y-78073687D01*
X138687762Y-78025026D01*
X138687760Y-78025025D01*
X138687757Y-78025024D01*
X138539923Y-77946006D01*
X138410342Y-77839660D01*
X138303996Y-77710079D01*
X138224978Y-77562245D01*
X138176314Y-77401822D01*
X138159884Y-77235001D01*
X138176314Y-77068180D01*
X138184055Y-77042661D01*
X138224976Y-76907762D01*
X138224977Y-76907760D01*
X138224978Y-76907757D01*
X138303996Y-76759923D01*
X138410342Y-76630342D01*
X138539923Y-76523996D01*
X138687757Y-76444978D01*
X138687760Y-76444977D01*
X138687762Y-76444976D01*
X138848176Y-76396315D01*
X138848177Y-76396315D01*
X138848180Y-76396314D01*
X138973197Y-76384001D01*
X139056805Y-76384001D01*
X139181822Y-76396314D01*
X139181822Y-76396314D01*
G37*
G36*
X123941822Y-76396314D02*
X123941825Y-76396315D01*
X123941826Y-76396315D01*
X124102240Y-76444976D01*
X124102242Y-76444977D01*
X124102245Y-76444978D01*
X124250079Y-76523996D01*
X124379660Y-76630342D01*
X124486006Y-76759923D01*
X124565024Y-76907757D01*
X124565025Y-76907760D01*
X124565026Y-76907762D01*
X124605947Y-77042661D01*
X124613688Y-77068180D01*
X124630118Y-77235001D01*
X124613688Y-77401822D01*
X124565024Y-77562245D01*
X124486006Y-77710079D01*
X124379660Y-77839660D01*
X124250079Y-77946006D01*
X124102245Y-78025024D01*
X124102242Y-78025025D01*
X124102240Y-78025026D01*
X123941826Y-78073687D01*
X123941825Y-78073687D01*
X123941822Y-78073688D01*
X123816805Y-78086001D01*
X123733197Y-78086001D01*
X123608180Y-78073688D01*
X123608177Y-78073687D01*
X123608176Y-78073687D01*
X123447762Y-78025026D01*
X123447760Y-78025025D01*
X123447757Y-78025024D01*
X123299923Y-77946006D01*
X123170342Y-77839660D01*
X123063996Y-77710079D01*
X122984978Y-77562245D01*
X122936314Y-77401822D01*
X122919884Y-77235001D01*
X122936314Y-77068180D01*
X122944055Y-77042661D01*
X122984976Y-76907762D01*
X122984977Y-76907760D01*
X122984978Y-76907757D01*
X123063996Y-76759923D01*
X123170342Y-76630342D01*
X123299923Y-76523996D01*
X123447757Y-76444978D01*
X123447760Y-76444977D01*
X123447762Y-76444976D01*
X123608176Y-76396315D01*
X123608177Y-76396315D01*
X123608180Y-76396314D01*
X123733197Y-76384001D01*
X123816805Y-76384001D01*
X123941822Y-76396314D01*
X123941822Y-76396314D01*
G37*
G36*
X135469928Y-75576764D02*
X135491011Y-75583160D01*
X135510442Y-75593546D01*
X135527475Y-75607525D01*
X135541454Y-75624558D01*
X135551840Y-75643989D01*
X135558236Y-75665072D01*
X135561000Y-75693140D01*
X135561000Y-77031860D01*
X135558236Y-77059928D01*
X135551840Y-77081011D01*
X135541454Y-77100442D01*
X135527475Y-77117475D01*
X135510442Y-77131454D01*
X135491011Y-77141840D01*
X135469928Y-77148236D01*
X135441860Y-77151000D01*
X134978140Y-77151000D01*
X134950072Y-77148236D01*
X134928989Y-77141840D01*
X134909558Y-77131454D01*
X134892525Y-77117475D01*
X134878546Y-77100442D01*
X134868160Y-77081011D01*
X134861764Y-77059928D01*
X134859000Y-77031860D01*
X134859000Y-75693140D01*
X134861764Y-75665072D01*
X134868160Y-75643989D01*
X134878546Y-75624558D01*
X134892525Y-75607525D01*
X134909558Y-75593546D01*
X134928989Y-75583160D01*
X134950072Y-75576764D01*
X134978140Y-75574000D01*
X135441860Y-75574000D01*
X135469928Y-75576764D01*
X135469928Y-75576764D01*
G37*
G36*
X127849928Y-75576764D02*
X127871011Y-75583160D01*
X127890442Y-75593546D01*
X127907475Y-75607525D01*
X127921454Y-75624558D01*
X127931840Y-75643989D01*
X127938236Y-75665072D01*
X127941000Y-75693140D01*
X127941000Y-77031860D01*
X127938236Y-77059928D01*
X127931840Y-77081011D01*
X127921454Y-77100442D01*
X127907475Y-77117475D01*
X127890442Y-77131454D01*
X127871011Y-77141840D01*
X127849928Y-77148236D01*
X127821860Y-77151000D01*
X127358140Y-77151000D01*
X127330072Y-77148236D01*
X127308989Y-77141840D01*
X127289558Y-77131454D01*
X127272525Y-77117475D01*
X127258546Y-77100442D01*
X127248160Y-77081011D01*
X127241764Y-77059928D01*
X127239000Y-77031860D01*
X127239000Y-75693140D01*
X127241764Y-75665072D01*
X127248160Y-75643989D01*
X127258546Y-75624558D01*
X127272525Y-75607525D01*
X127289558Y-75593546D01*
X127308989Y-75583160D01*
X127330072Y-75576764D01*
X127358140Y-75574000D01*
X127821860Y-75574000D01*
X127849928Y-75576764D01*
X127849928Y-75576764D01*
G37*
G36*
X130389928Y-75576764D02*
X130411011Y-75583160D01*
X130430442Y-75593546D01*
X130447475Y-75607525D01*
X130461454Y-75624558D01*
X130471840Y-75643989D01*
X130478236Y-75665072D01*
X130481000Y-75693140D01*
X130481000Y-77031860D01*
X130478236Y-77059928D01*
X130471840Y-77081011D01*
X130461454Y-77100442D01*
X130447475Y-77117475D01*
X130430442Y-77131454D01*
X130411011Y-77141840D01*
X130389928Y-77148236D01*
X130361860Y-77151000D01*
X129898140Y-77151000D01*
X129870072Y-77148236D01*
X129848989Y-77141840D01*
X129829558Y-77131454D01*
X129812525Y-77117475D01*
X129798546Y-77100442D01*
X129788160Y-77081011D01*
X129781764Y-77059928D01*
X129779000Y-77031860D01*
X129779000Y-75693140D01*
X129781764Y-75665072D01*
X129788160Y-75643989D01*
X129798546Y-75624558D01*
X129812525Y-75607525D01*
X129829558Y-75593546D01*
X129848989Y-75583160D01*
X129870072Y-75576764D01*
X129898140Y-75574000D01*
X130361860Y-75574000D01*
X130389928Y-75576764D01*
X130389928Y-75576764D01*
G37*
G36*
X131659928Y-75576764D02*
X131681011Y-75583160D01*
X131700442Y-75593546D01*
X131717475Y-75607525D01*
X131731454Y-75624558D01*
X131741840Y-75643989D01*
X131748236Y-75665072D01*
X131751000Y-75693140D01*
X131751000Y-77031860D01*
X131748236Y-77059928D01*
X131741840Y-77081011D01*
X131731454Y-77100442D01*
X131717475Y-77117475D01*
X131700442Y-77131454D01*
X131681011Y-77141840D01*
X131659928Y-77148236D01*
X131631860Y-77151000D01*
X131168140Y-77151000D01*
X131140072Y-77148236D01*
X131118989Y-77141840D01*
X131099558Y-77131454D01*
X131082525Y-77117475D01*
X131068546Y-77100442D01*
X131058160Y-77081011D01*
X131051764Y-77059928D01*
X131049000Y-77031860D01*
X131049000Y-75693140D01*
X131051764Y-75665072D01*
X131058160Y-75643989D01*
X131068546Y-75624558D01*
X131082525Y-75607525D01*
X131099558Y-75593546D01*
X131118989Y-75583160D01*
X131140072Y-75576764D01*
X131168140Y-75574000D01*
X131631860Y-75574000D01*
X131659928Y-75576764D01*
X131659928Y-75576764D01*
G37*
G36*
X129119928Y-75576764D02*
X129141011Y-75583160D01*
X129160442Y-75593546D01*
X129177475Y-75607525D01*
X129191454Y-75624558D01*
X129201840Y-75643989D01*
X129208236Y-75665072D01*
X129211000Y-75693140D01*
X129211000Y-77031860D01*
X129208236Y-77059928D01*
X129201840Y-77081011D01*
X129191454Y-77100442D01*
X129177475Y-77117475D01*
X129160442Y-77131454D01*
X129141011Y-77141840D01*
X129119928Y-77148236D01*
X129091860Y-77151000D01*
X128628140Y-77151000D01*
X128600072Y-77148236D01*
X128578989Y-77141840D01*
X128559558Y-77131454D01*
X128542525Y-77117475D01*
X128528546Y-77100442D01*
X128518160Y-77081011D01*
X128511764Y-77059928D01*
X128509000Y-77031860D01*
X128509000Y-75693140D01*
X128511764Y-75665072D01*
X128518160Y-75643989D01*
X128528546Y-75624558D01*
X128542525Y-75607525D01*
X128559558Y-75593546D01*
X128578989Y-75583160D01*
X128600072Y-75576764D01*
X128628140Y-75574000D01*
X129091860Y-75574000D01*
X129119928Y-75576764D01*
X129119928Y-75576764D01*
G37*
G36*
X132929928Y-75576764D02*
X132951011Y-75583160D01*
X132970442Y-75593546D01*
X132987475Y-75607525D01*
X133001454Y-75624558D01*
X133011840Y-75643989D01*
X133018236Y-75665072D01*
X133021000Y-75693140D01*
X133021000Y-77031860D01*
X133018236Y-77059928D01*
X133011840Y-77081011D01*
X133001454Y-77100442D01*
X132987475Y-77117475D01*
X132970442Y-77131454D01*
X132951011Y-77141840D01*
X132929928Y-77148236D01*
X132901860Y-77151000D01*
X132438140Y-77151000D01*
X132410072Y-77148236D01*
X132388989Y-77141840D01*
X132369558Y-77131454D01*
X132352525Y-77117475D01*
X132338546Y-77100442D01*
X132328160Y-77081011D01*
X132321764Y-77059928D01*
X132319000Y-77031860D01*
X132319000Y-75693140D01*
X132321764Y-75665072D01*
X132328160Y-75643989D01*
X132338546Y-75624558D01*
X132352525Y-75607525D01*
X132369558Y-75593546D01*
X132388989Y-75583160D01*
X132410072Y-75576764D01*
X132438140Y-75574000D01*
X132901860Y-75574000D01*
X132929928Y-75576764D01*
X132929928Y-75576764D01*
G37*
G36*
X134199928Y-75576764D02*
X134221011Y-75583160D01*
X134240442Y-75593546D01*
X134257475Y-75607525D01*
X134271454Y-75624558D01*
X134281840Y-75643989D01*
X134288236Y-75665072D01*
X134291000Y-75693140D01*
X134291000Y-77031860D01*
X134288236Y-77059928D01*
X134281840Y-77081011D01*
X134271454Y-77100442D01*
X134257475Y-77117475D01*
X134240442Y-77131454D01*
X134221011Y-77141840D01*
X134199928Y-77148236D01*
X134171860Y-77151000D01*
X133708140Y-77151000D01*
X133680072Y-77148236D01*
X133658989Y-77141840D01*
X133639558Y-77131454D01*
X133622525Y-77117475D01*
X133608546Y-77100442D01*
X133598160Y-77081011D01*
X133591764Y-77059928D01*
X133589000Y-77031860D01*
X133589000Y-75693140D01*
X133591764Y-75665072D01*
X133598160Y-75643989D01*
X133608546Y-75624558D01*
X133622525Y-75607525D01*
X133639558Y-75593546D01*
X133658989Y-75583160D01*
X133680072Y-75576764D01*
X133708140Y-75574000D01*
X134171860Y-75574000D01*
X134199928Y-75576764D01*
X134199928Y-75576764D01*
G37*
G36*
X139181822Y-73856314D02*
X139181825Y-73856315D01*
X139181826Y-73856315D01*
X139342240Y-73904976D01*
X139342242Y-73904977D01*
X139342245Y-73904978D01*
X139490079Y-73983996D01*
X139619660Y-74090342D01*
X139726006Y-74219923D01*
X139805024Y-74367757D01*
X139853688Y-74528180D01*
X139870118Y-74695001D01*
X139853688Y-74861822D01*
X139805024Y-75022245D01*
X139726006Y-75170079D01*
X139619660Y-75299660D01*
X139490079Y-75406006D01*
X139342245Y-75485024D01*
X139342242Y-75485025D01*
X139342240Y-75485026D01*
X139181826Y-75533687D01*
X139181825Y-75533687D01*
X139181822Y-75533688D01*
X139056805Y-75546001D01*
X138973197Y-75546001D01*
X138848180Y-75533688D01*
X138848177Y-75533687D01*
X138848176Y-75533687D01*
X138687762Y-75485026D01*
X138687760Y-75485025D01*
X138687757Y-75485024D01*
X138539923Y-75406006D01*
X138410342Y-75299660D01*
X138303996Y-75170079D01*
X138224978Y-75022245D01*
X138176314Y-74861822D01*
X138159884Y-74695001D01*
X138176314Y-74528180D01*
X138224978Y-74367757D01*
X138303996Y-74219923D01*
X138410342Y-74090342D01*
X138539923Y-73983996D01*
X138687757Y-73904978D01*
X138687760Y-73904977D01*
X138687762Y-73904976D01*
X138848176Y-73856315D01*
X138848177Y-73856315D01*
X138848180Y-73856314D01*
X138973197Y-73844001D01*
X139056805Y-73844001D01*
X139181822Y-73856314D01*
X139181822Y-73856314D01*
G37*
G36*
X123941822Y-73856314D02*
X123941825Y-73856315D01*
X123941826Y-73856315D01*
X124102240Y-73904976D01*
X124102242Y-73904977D01*
X124102245Y-73904978D01*
X124250079Y-73983996D01*
X124379660Y-74090342D01*
X124486006Y-74219923D01*
X124565024Y-74367757D01*
X124613688Y-74528180D01*
X124630118Y-74695001D01*
X124613688Y-74861822D01*
X124565024Y-75022245D01*
X124486006Y-75170079D01*
X124379660Y-75299660D01*
X124250079Y-75406006D01*
X124102245Y-75485024D01*
X124102242Y-75485025D01*
X124102240Y-75485026D01*
X123941826Y-75533687D01*
X123941825Y-75533687D01*
X123941822Y-75533688D01*
X123816805Y-75546001D01*
X123733197Y-75546001D01*
X123608180Y-75533688D01*
X123608177Y-75533687D01*
X123608176Y-75533687D01*
X123447762Y-75485026D01*
X123447760Y-75485025D01*
X123447757Y-75485024D01*
X123299923Y-75406006D01*
X123170342Y-75299660D01*
X123063996Y-75170079D01*
X122984978Y-75022245D01*
X122936314Y-74861822D01*
X122919884Y-74695001D01*
X122936314Y-74528180D01*
X122984978Y-74367757D01*
X123063996Y-74219923D01*
X123170342Y-74090342D01*
X123299923Y-73983996D01*
X123447757Y-73904978D01*
X123447760Y-73904977D01*
X123447762Y-73904976D01*
X123608176Y-73856315D01*
X123608177Y-73856315D01*
X123608180Y-73856314D01*
X123733197Y-73844001D01*
X123816805Y-73844001D01*
X123941822Y-73856314D01*
X123941822Y-73856314D01*
G37*
G36*
X139181822Y-71316314D02*
X139181825Y-71316315D01*
X139181826Y-71316315D01*
X139342240Y-71364976D01*
X139342242Y-71364977D01*
X139342245Y-71364978D01*
X139490079Y-71443996D01*
X139619660Y-71550342D01*
X139726006Y-71679923D01*
X139805024Y-71827757D01*
X139853688Y-71988180D01*
X139870118Y-72155001D01*
X139853688Y-72321822D01*
X139805024Y-72482245D01*
X139726006Y-72630079D01*
X139619660Y-72759660D01*
X139490079Y-72866006D01*
X139342245Y-72945024D01*
X139342242Y-72945025D01*
X139342240Y-72945026D01*
X139181826Y-72993687D01*
X139181825Y-72993687D01*
X139181822Y-72993688D01*
X139056805Y-73006001D01*
X138973197Y-73006001D01*
X138848180Y-72993688D01*
X138848177Y-72993687D01*
X138848176Y-72993687D01*
X138687762Y-72945026D01*
X138687760Y-72945025D01*
X138687757Y-72945024D01*
X138539923Y-72866006D01*
X138410342Y-72759660D01*
X138303996Y-72630079D01*
X138224978Y-72482245D01*
X138176314Y-72321822D01*
X138159884Y-72155001D01*
X138176314Y-71988180D01*
X138224978Y-71827757D01*
X138303996Y-71679923D01*
X138410342Y-71550342D01*
X138539923Y-71443996D01*
X138687757Y-71364978D01*
X138687760Y-71364977D01*
X138687762Y-71364976D01*
X138848176Y-71316315D01*
X138848177Y-71316315D01*
X138848180Y-71316314D01*
X138973197Y-71304001D01*
X139056805Y-71304001D01*
X139181822Y-71316314D01*
X139181822Y-71316314D01*
G37*
G36*
X123941822Y-71316314D02*
X123941825Y-71316315D01*
X123941826Y-71316315D01*
X124102240Y-71364976D01*
X124102242Y-71364977D01*
X124102245Y-71364978D01*
X124250079Y-71443996D01*
X124379660Y-71550342D01*
X124486006Y-71679923D01*
X124565024Y-71827757D01*
X124613688Y-71988180D01*
X124630118Y-72155001D01*
X124613688Y-72321822D01*
X124565024Y-72482245D01*
X124486006Y-72630079D01*
X124379660Y-72759660D01*
X124250079Y-72866006D01*
X124102245Y-72945024D01*
X124102242Y-72945025D01*
X124102240Y-72945026D01*
X123941826Y-72993687D01*
X123941825Y-72993687D01*
X123941822Y-72993688D01*
X123816805Y-73006001D01*
X123733197Y-73006001D01*
X123608180Y-72993688D01*
X123608177Y-72993687D01*
X123608176Y-72993687D01*
X123447762Y-72945026D01*
X123447760Y-72945025D01*
X123447757Y-72945024D01*
X123299923Y-72866006D01*
X123170342Y-72759660D01*
X123063996Y-72630079D01*
X122984978Y-72482245D01*
X122936314Y-72321822D01*
X122919884Y-72155001D01*
X122936314Y-71988180D01*
X122984978Y-71827757D01*
X123063996Y-71679923D01*
X123170342Y-71550342D01*
X123299923Y-71443996D01*
X123447757Y-71364978D01*
X123447760Y-71364977D01*
X123447762Y-71364976D01*
X123608176Y-71316315D01*
X123608177Y-71316315D01*
X123608180Y-71316314D01*
X123733197Y-71304001D01*
X123816805Y-71304001D01*
X123941822Y-71316314D01*
X123941822Y-71316314D01*
G37*
G36*
X139181822Y-68776314D02*
X139181825Y-68776315D01*
X139181826Y-68776315D01*
X139342240Y-68824976D01*
X139342242Y-68824977D01*
X139342245Y-68824978D01*
X139490079Y-68903996D01*
X139619660Y-69010342D01*
X139726006Y-69139923D01*
X139805024Y-69287757D01*
X139853688Y-69448180D01*
X139870118Y-69615001D01*
X139853688Y-69781822D01*
X139805024Y-69942245D01*
X139726006Y-70090079D01*
X139619660Y-70219660D01*
X139490079Y-70326006D01*
X139342245Y-70405024D01*
X139342242Y-70405025D01*
X139342240Y-70405026D01*
X139181826Y-70453687D01*
X139181825Y-70453687D01*
X139181822Y-70453688D01*
X139056805Y-70466001D01*
X138973197Y-70466001D01*
X138848180Y-70453688D01*
X138848177Y-70453687D01*
X138848176Y-70453687D01*
X138687762Y-70405026D01*
X138687760Y-70405025D01*
X138687757Y-70405024D01*
X138539923Y-70326006D01*
X138410342Y-70219660D01*
X138303996Y-70090079D01*
X138224978Y-69942245D01*
X138176314Y-69781822D01*
X138159884Y-69615001D01*
X138176314Y-69448180D01*
X138224978Y-69287757D01*
X138303996Y-69139923D01*
X138410342Y-69010342D01*
X138539923Y-68903996D01*
X138687757Y-68824978D01*
X138687760Y-68824977D01*
X138687762Y-68824976D01*
X138848176Y-68776315D01*
X138848177Y-68776315D01*
X138848180Y-68776314D01*
X138973197Y-68764001D01*
X139056805Y-68764001D01*
X139181822Y-68776314D01*
X139181822Y-68776314D01*
G37*
G36*
X123941822Y-68776314D02*
X123941825Y-68776315D01*
X123941826Y-68776315D01*
X124102240Y-68824976D01*
X124102242Y-68824977D01*
X124102245Y-68824978D01*
X124250079Y-68903996D01*
X124379660Y-69010342D01*
X124486006Y-69139923D01*
X124565024Y-69287757D01*
X124613688Y-69448180D01*
X124630118Y-69615001D01*
X124613688Y-69781822D01*
X124565024Y-69942245D01*
X124486006Y-70090079D01*
X124379660Y-70219660D01*
X124250079Y-70326006D01*
X124102245Y-70405024D01*
X124102242Y-70405025D01*
X124102240Y-70405026D01*
X123941826Y-70453687D01*
X123941825Y-70453687D01*
X123941822Y-70453688D01*
X123816805Y-70466001D01*
X123733197Y-70466001D01*
X123608180Y-70453688D01*
X123608177Y-70453687D01*
X123608176Y-70453687D01*
X123447762Y-70405026D01*
X123447760Y-70405025D01*
X123447757Y-70405024D01*
X123299923Y-70326006D01*
X123170342Y-70219660D01*
X123063996Y-70090079D01*
X122984978Y-69942245D01*
X122936314Y-69781822D01*
X122919884Y-69615001D01*
X122936314Y-69448180D01*
X122984978Y-69287757D01*
X123063996Y-69139923D01*
X123170342Y-69010342D01*
X123299923Y-68903996D01*
X123447757Y-68824978D01*
X123447760Y-68824977D01*
X123447762Y-68824976D01*
X123608176Y-68776315D01*
X123608177Y-68776315D01*
X123608180Y-68776314D01*
X123733197Y-68764001D01*
X123816805Y-68764001D01*
X123941822Y-68776314D01*
X123941822Y-68776314D01*
G37*
G36*
X139181822Y-66236314D02*
X139181825Y-66236315D01*
X139181826Y-66236315D01*
X139342240Y-66284976D01*
X139342242Y-66284977D01*
X139342245Y-66284978D01*
X139490079Y-66363996D01*
X139619660Y-66470342D01*
X139726006Y-66599923D01*
X139805024Y-66747757D01*
X139853688Y-66908180D01*
X139870118Y-67075001D01*
X139853688Y-67241822D01*
X139805024Y-67402245D01*
X139726006Y-67550079D01*
X139619660Y-67679660D01*
X139490079Y-67786006D01*
X139342245Y-67865024D01*
X139342242Y-67865025D01*
X139342240Y-67865026D01*
X139181826Y-67913687D01*
X139181825Y-67913687D01*
X139181822Y-67913688D01*
X139056805Y-67926001D01*
X138973197Y-67926001D01*
X138848180Y-67913688D01*
X138848177Y-67913687D01*
X138848176Y-67913687D01*
X138687762Y-67865026D01*
X138687760Y-67865025D01*
X138687757Y-67865024D01*
X138539923Y-67786006D01*
X138410342Y-67679660D01*
X138303996Y-67550079D01*
X138224978Y-67402245D01*
X138176314Y-67241822D01*
X138159884Y-67075001D01*
X138176314Y-66908180D01*
X138224978Y-66747757D01*
X138303996Y-66599923D01*
X138410342Y-66470342D01*
X138539923Y-66363996D01*
X138687757Y-66284978D01*
X138687760Y-66284977D01*
X138687762Y-66284976D01*
X138848176Y-66236315D01*
X138848177Y-66236315D01*
X138848180Y-66236314D01*
X138973197Y-66224001D01*
X139056805Y-66224001D01*
X139181822Y-66236314D01*
X139181822Y-66236314D01*
G37*
G36*
X124626001Y-67926001D02*
X122924001Y-67926001D01*
X122924001Y-66224001D01*
X124626001Y-66224001D01*
X124626001Y-67926001D01*
X124626001Y-67926001D01*
G37*
M02*
