G04 #@! TF.GenerationSoftware,KiCad,Pcbnew,5.0.2+dfsg1-1*
G04 #@! TF.CreationDate,2021-06-16T12:20:31+01:00*
G04 #@! TF.ProjectId,SE PLCC ROM,53452050-4c43-4432-9052-4f4d2e6b6963,rev?*
G04 #@! TF.SameCoordinates,Original*
G04 #@! TF.FileFunction,Legend,Bot*
G04 #@! TF.FilePolarity,Positive*
%FSLAX46Y46*%
G04 Gerber Fmt 4.6, Leading zero omitted, Abs format (unit mm)*
G04 Created by KiCad (PCBNEW 5.0.2+dfsg1-1) date Wed 16 Jun 2021 12:20:31 BST*
%MOMM*%
%LPD*%
G01*
G04 APERTURE LIST*
%ADD10C,0.150000*%
%ADD11C,0.120000*%
G04 APERTURE END LIST*
D10*
X132400000Y-65450000D02*
G75*
G02X130400000Y-65450000I-1000000J0D01*
G01*
X140150000Y-65450000D02*
X132450000Y-65450000D01*
X122650000Y-65450000D02*
X130350000Y-65450000D01*
X122650000Y-65450000D02*
X122650000Y-101700000D01*
X140150000Y-101700000D02*
X122650000Y-101700000D01*
X140150000Y-65450000D02*
X140150000Y-101700000D01*
D11*
G04 #@! TO.C,R2*
X133412779Y-84960000D02*
X133087221Y-84960000D01*
X133412779Y-83940000D02*
X133087221Y-83940000D01*
G04 #@! TO.C,R1*
X133099721Y-79660000D02*
X133425279Y-79660000D01*
X133099721Y-78640000D02*
X133425279Y-78640000D01*
G04 #@! TD*
G04 #@! TO.C,R2*
D10*
X133845238Y-83602380D02*
X134416666Y-83602380D01*
X134130952Y-83602380D02*
X134130952Y-82602380D01*
X134226190Y-82745238D01*
X134321428Y-82840476D01*
X134416666Y-82888095D01*
X133226190Y-82602380D02*
X133130952Y-82602380D01*
X133035714Y-82650000D01*
X132988095Y-82697619D01*
X132940476Y-82792857D01*
X132892857Y-82983333D01*
X132892857Y-83221428D01*
X132940476Y-83411904D01*
X132988095Y-83507142D01*
X133035714Y-83554761D01*
X133130952Y-83602380D01*
X133226190Y-83602380D01*
X133321428Y-83554761D01*
X133369047Y-83507142D01*
X133416666Y-83411904D01*
X133464285Y-83221428D01*
X133464285Y-82983333D01*
X133416666Y-82792857D01*
X133369047Y-82697619D01*
X133321428Y-82650000D01*
X133226190Y-82602380D01*
X132464285Y-83602380D02*
X132464285Y-82602380D01*
X132369047Y-83221428D02*
X132083333Y-83602380D01*
X132083333Y-82935714D02*
X132464285Y-83316666D01*
G04 #@! TO.C,R1*
X133845238Y-78302380D02*
X134416666Y-78302380D01*
X134130952Y-78302380D02*
X134130952Y-77302380D01*
X134226190Y-77445238D01*
X134321428Y-77540476D01*
X134416666Y-77588095D01*
X133226190Y-77302380D02*
X133130952Y-77302380D01*
X133035714Y-77350000D01*
X132988095Y-77397619D01*
X132940476Y-77492857D01*
X132892857Y-77683333D01*
X132892857Y-77921428D01*
X132940476Y-78111904D01*
X132988095Y-78207142D01*
X133035714Y-78254761D01*
X133130952Y-78302380D01*
X133226190Y-78302380D01*
X133321428Y-78254761D01*
X133369047Y-78207142D01*
X133416666Y-78111904D01*
X133464285Y-77921428D01*
X133464285Y-77683333D01*
X133416666Y-77492857D01*
X133369047Y-77397619D01*
X133321428Y-77350000D01*
X133226190Y-77302380D01*
X132464285Y-78302380D02*
X132464285Y-77302380D01*
X132369047Y-77921428D02*
X132083333Y-78302380D01*
X132083333Y-77635714D02*
X132464285Y-78016666D01*
G04 #@! TD*
M02*
