M48
;DRILL file {KiCad 5.0.2+dfsg1-1} date Wed 16 Jun 2021 12:20:36 BST
;FORMAT={-:-/ absolute / inch / decimal}
FMAT,2
INCH,TZ
T1C0.0118
T2C0.0315
%
G90
G05
T1
X4.9528Y-3.126
X4.9528Y-3.1752
X4.9528Y-3.4252
X5.1232Y-3.5448
X5.2232Y-3.0064
X5.2736Y-3.0059
X5.3484Y-3.1256
X5.3937Y-3.1752
X5.3937Y-3.2264
X5.3937Y-3.2756
X5.3937Y-3.3248
T2
X4.873Y-2.6407
X4.873Y-2.7407
X4.873Y-2.8407
X4.873Y-2.9407
X4.873Y-3.0407
X4.873Y-3.1407
X4.873Y-3.2407
X4.873Y-3.3407
X4.873Y-3.4407
X4.873Y-3.5407
X4.873Y-3.6407
X4.873Y-3.7407
X4.873Y-3.8407
X4.873Y-3.9407
X5.473Y-2.6407
X5.473Y-2.7407
X5.473Y-2.8407
X5.473Y-2.9407
X5.473Y-3.0407
X5.473Y-3.1407
X5.473Y-3.2407
X5.473Y-3.3407
X5.473Y-3.4407
X5.473Y-3.5407
X5.473Y-3.6407
X5.473Y-3.7407
X5.473Y-3.8407
X5.473Y-3.9407
T0
M30
